<svg xmlns="http://www.w3.org/2000/svg" viewBox="0 0 80 80" fill="none">
<rect x="15" y="20" width="24" height="50" rx="2" fill="#6B4226" opacity=".12"/>
<rect x="41" y="10" width="24" height="60" rx="2" fill="#6B4226" opacity=".18"/>
<rect x="19" y="26" width="6" height="6" rx="1" fill="#5A8C3C" opacity=".2"/>
<rect x="29" y="26" width="6" height="6" rx="1" fill="#5A8C3C" opacity=".2"/>
<rect x="19" y="36" width="6" height="6" rx="1" fill="#5A8C3C" opacity=".2"/>
<rect x="29" y="36" width="6" height="6" rx="1" fill="#5A8C3C" opacity=".2"/>
<rect x="45" y="16" width="6" height="6" rx="1" fill="#5A8C3C" opacity=".2"/>
<rect x="55" y="16" width="6" height="6" rx="1" fill="#5A8C3C" opacity=".2"/>
<rect x="45" y="26" width="6" height="6" rx="1" fill="#5A8C3C" opacity=".2"/>
<rect x="55" y="26" width="6" height="6" rx="1" fill="#5A8C3C" opacity=".2"/>
<rect x="45" y="36" width="6" height="6" rx="1" fill="#5A8C3C" opacity=".2"/>
<rect x="55" y="36" width="6" height="6" rx="1" fill="#5A8C3C" opacity=".2"/>
</svg>
