<svg id="contents_checkIcon" xmlns="http://www.w3.org/2000/svg" xmlns:xlink="http://www.w3.org/1999/xlink" width="45.451" height="43.991" viewBox="0 0 45.451 43.991">
  <defs>
    <clipPath id="clip-path">
      <rect id="長方形_1993" data-name="長方形 1993" width="36.627" height="34.354" fill="none"/>
    </clipPath>
  </defs>
  <g id="グループ_2692" data-name="グループ 2692" transform="matrix(0.951, -0.309, 0.309, 0.951, 0, 11.318)" clip-path="url(#clip-path)">
    <path id="パス_42" data-name="パス 42" d="M14.479,22.844l5.247,5.247,18.518-9.1" transform="translate(-4.401 -5.771)" fill="none" stroke="#30a053" stroke-linecap="round" stroke-linejoin="round" stroke-width="3"/>
    <path id="パス_43" data-name="パス 43" d="M22.358,2.081A16.056,16.056,0,0,1,23.972,2,15.764,15.764,0,0,1,36.756,8.524" transform="translate(-6.795 -0.608)" fill="none" stroke="#1a1311" stroke-linecap="round" stroke-linejoin="round" stroke-width="2"/>
    <path id="パス_44" data-name="パス 44" d="M2.862,23.709A15.807,15.807,0,0,1,10.55,4.517" transform="translate(-0.608 -1.373)" fill="none" stroke="#1a1311" stroke-linecap="round" stroke-linejoin="round" stroke-width="2"/>
    <path id="パス_45" data-name="パス 45" d="M19.435,44.937A15.749,15.749,0,0,1,7.429,39.4" transform="translate(-2.258 -11.975)" fill="none" stroke="#1a1311" stroke-linecap="round" stroke-linejoin="round" stroke-width="2"/>
    <path id="パス_46" data-name="パス 46" d="M42.493,30.072a15.818,15.818,0,0,1-9.656,10.977" transform="translate(-9.98 -9.14)" fill="none" stroke="#1a1311" stroke-linecap="round" stroke-linejoin="round" stroke-width="2"/>
  </g>
</svg>
