<?xml version="1.0" encoding="utf-8"?>
<!-- Generator: Adobe Illustrator 26.0.1, SVG Export Plug-In . SVG Version: 6.00 Build 0)  -->
<svg version="1.1" xmlns="http://www.w3.org/2000/svg" xmlns:xlink="http://www.w3.org/1999/xlink" x="0px" y="0px"
	 viewBox="0 0 25.2 26" style="enable-background:new 0 0 25.2 26;" xml:space="preserve">
<style type="text/css">
	.st0{fill:#75181D;}
</style>
<g id="レイヤー_1">
</g>
<g id="文字">
	<g>
		<path d="M20.3,10.1v14.7H1.2V13.1c-0.4-0.5-0.4-1.3,0-1.8V5.7h16.9l1.1-1.2H0V26h21.5v-0.6V8.3L20.3,10.1z"/>
		<path class="st0" d="M10.7,22.1c-0.1,0-0.1,0-0.2-0.1l-8.4-9.7c-0.1-0.1-0.1-0.2,0-0.3c0,0,0.1-0.1,0.2-0.1c0,0,0.1,0,0.1,0
			l7.8,4.5L24.9,0.1C24.9,0,24.9,0,25,0c0,0,0.1,0,0.1,0c0.1,0.1,0.1,0.2,0,0.3L10.9,22C10.8,22.1,10.8,22.1,10.7,22.1
			C10.7,22.1,10.7,22.1,10.7,22.1L10.7,22.1z"/>
	</g>
</g>
</svg>
