<?xml version="1.0" encoding="utf-8"?>
<!-- Generator: Adobe Illustrator 26.0.1, SVG Export Plug-In . SVG Version: 6.00 Build 0)  -->
<svg version="1.1" xmlns="http://www.w3.org/2000/svg" xmlns:xlink="http://www.w3.org/1999/xlink" x="0px" y="0px"
	 viewBox="0 0 400 270" style="enable-background:new 0 0 400 270;" xml:space="preserve">
<style type="text/css">
	.st0{fill:none;stroke:#888888;stroke-linejoin:round;}
	.st1{fill:none;stroke:#888888;stroke-linecap:round;}
	.st2{fill:none;stroke:#888888;}
	.st3{fill:none;stroke:#888888;stroke-width:0.5;stroke-linecap:round;}
	.st4{fill:#85B1DF;}
	.st5{fill:#C8C9CA;}
	.st6{fill:#FFFFFF;}
	.st7{fill-rule:evenodd;clip-rule:evenodd;}
	.st8{fill:none;}
</style>
<g id="レイヤー_1">
</g>
<g id="イラスト">
	<g>
		<g>
			<line class="st0" x1="12.8" y1="103.7" x2="400" y2="103.7"/>
			<g>
				<polyline class="st1" points="154.9,103.7 154.9,45 133.6,45 133.6,103.7 				"/>
				<polyline class="st1" points="140.2,103.7 140.2,97.3 152.4,97.3 152.4,103.7 				"/>
				<line class="st1" x1="140.2" y1="95.3" x2="152.4" y2="95.3"/>
				<rect x="136.3" y="47.5" class="st1" width="16.1" height="3.9"/>
				<rect x="146" y="54" class="st1" width="6.3" height="3.9"/>
				<rect x="136.3" y="54" class="st1" width="6.3" height="3.9"/>
				<rect x="146" y="60.4" class="st1" width="6.3" height="3.9"/>
				<rect x="136.3" y="60.4" class="st1" width="6.3" height="3.9"/>
				<rect x="146" y="66.8" class="st1" width="6.3" height="3.9"/>
				<rect x="136.3" y="66.8" class="st1" width="6.3" height="3.9"/>
				<rect x="146" y="73.2" class="st1" width="6.3" height="3.9"/>
				<rect x="136.3" y="73.2" class="st1" width="6.3" height="3.9"/>
				<rect x="146" y="79.7" class="st1" width="6.3" height="3.9"/>
				<rect x="136.3" y="79.7" class="st1" width="6.3" height="3.9"/>
				<rect x="146" y="86.1" class="st1" width="6.3" height="3.9"/>
				<rect x="136.3" y="86.1" class="st1" width="6.3" height="3.9"/>
			</g>
			<g>
				<polyline class="st1" points="189,103.7 189,55.3 160.6,55.3 160.6,103.7 				"/>
				<polyline class="st1" points="169.3,103.7 169.3,98.2 185.6,98.2 185.6,103.7 				"/>
				<line class="st1" x1="169.3" y1="96.6" x2="185.6" y2="96.6"/>
				<rect x="164.1" y="58.3" class="st1" width="21.5" height="3.2"/>
				<rect x="177.1" y="63.5" class="st1" width="8.4" height="3.2"/>
				<line class="st1" x1="185.5" y1="66.7" x2="164.1" y2="66.7"/>
				<line class="st1" x1="185.5" y1="71.8" x2="164.1" y2="71.8"/>
				<line class="st1" x1="185.5" y1="77" x2="164.1" y2="77"/>
				<line class="st1" x1="185.5" y1="82.1" x2="164.1" y2="82.1"/>
				<line class="st1" x1="185.5" y1="87.2" x2="164.1" y2="87.2"/>
				<line class="st1" x1="185.5" y1="92.4" x2="164.1" y2="92.4"/>
				<rect x="164.1" y="63.5" class="st1" width="8.4" height="3.2"/>
				<rect x="177.1" y="68.7" class="st1" width="8.4" height="3.2"/>
				<rect x="164.1" y="68.7" class="st1" width="8.4" height="3.2"/>
				<rect x="177.1" y="73.8" class="st1" width="8.4" height="3.2"/>
				<rect x="164.1" y="73.8" class="st1" width="8.4" height="3.2"/>
				<rect x="177.1" y="78.9" class="st1" width="8.4" height="3.2"/>
				<rect x="164.1" y="78.9" class="st1" width="8.4" height="3.2"/>
				<rect x="177.1" y="84.1" class="st1" width="8.4" height="3.2"/>
				<rect x="164.1" y="84.1" class="st1" width="8.4" height="3.2"/>
				<rect x="177.1" y="89.2" class="st1" width="8.4" height="3.2"/>
				<rect x="164.1" y="89.2" class="st1" width="8.4" height="3.2"/>
			</g>
			<g>
				<polyline class="st1" points="207.3,103.7 207.3,95.6 228.8,95.6 228.8,103.7 				"/>
				<polyline class="st1" points="209.7,102 209.7,97.2 226.4,97.2 226.4,102 				"/>
				<rect x="207.3" y="58.3" class="st1" width="21.5" height="3.2"/>
				<rect x="220.3" y="63.5" class="st1" width="8.4" height="3.2"/>
				<line class="st1" x1="228.7" y1="66.7" x2="207.3" y2="66.7"/>
				<line class="st1" x1="228.7" y1="71.8" x2="207.3" y2="71.8"/>
				<line class="st1" x1="228.7" y1="77" x2="207.3" y2="77"/>
				<line class="st1" x1="228.7" y1="82.1" x2="207.3" y2="82.1"/>
				<line class="st1" x1="228.7" y1="87.2" x2="207.3" y2="87.2"/>
				<line class="st1" x1="228.7" y1="92.4" x2="207.3" y2="92.4"/>
				<rect x="207.3" y="63.5" class="st1" width="8.4" height="3.2"/>
				<rect x="220.3" y="68.7" class="st1" width="8.4" height="3.2"/>
				<rect x="207.3" y="68.7" class="st1" width="8.4" height="3.2"/>
				<rect x="220.3" y="73.8" class="st1" width="8.4" height="3.2"/>
				<rect x="207.3" y="73.8" class="st1" width="8.4" height="3.2"/>
				<rect x="220.3" y="78.9" class="st1" width="8.4" height="3.2"/>
				<rect x="207.3" y="78.9" class="st1" width="8.4" height="3.2"/>
				<rect x="220.3" y="84.1" class="st1" width="8.4" height="3.2"/>
				<rect x="207.3" y="84.1" class="st1" width="8.4" height="3.2"/>
				<rect x="220.3" y="89.2" class="st1" width="8.4" height="3.2"/>
				<rect x="207.3" y="89.2" class="st1" width="8.4" height="3.2"/>
				<polyline class="st1" points="237.5,103.7 237.5,97 253.7,97 253.7,103.7 				"/>
				<line class="st2" x1="237.5" y1="95.6" x2="253.7" y2="95.6"/>
				<rect x="232.3" y="58.3" class="st1" width="21.5" height="3.2"/>
				<rect x="245.3" y="63.5" class="st1" width="8.4" height="3.2"/>
				<line class="st1" x1="253.7" y1="66.7" x2="232.3" y2="66.7"/>
				<line class="st1" x1="253.7" y1="71.8" x2="232.3" y2="71.8"/>
				<line class="st1" x1="253.7" y1="77" x2="232.3" y2="77"/>
				<line class="st1" x1="253.7" y1="82.1" x2="232.3" y2="82.1"/>
				<line class="st1" x1="253.7" y1="87.2" x2="232.3" y2="87.2"/>
				<line class="st1" x1="253.7" y1="92.4" x2="232.3" y2="92.4"/>
				<rect x="232.3" y="63.5" class="st1" width="8.4" height="3.2"/>
				<rect x="245.3" y="68.7" class="st1" width="8.4" height="3.2"/>
				<rect x="232.3" y="68.7" class="st1" width="8.4" height="3.2"/>
				<rect x="245.3" y="73.8" class="st1" width="8.4" height="3.2"/>
				<rect x="232.3" y="73.8" class="st1" width="8.4" height="3.2"/>
				<rect x="245.3" y="78.9" class="st1" width="8.4" height="3.2"/>
				<rect x="232.3" y="78.9" class="st1" width="8.4" height="3.2"/>
				<rect x="245.3" y="84.1" class="st1" width="8.4" height="3.2"/>
				<rect x="232.3" y="84.1" class="st1" width="8.4" height="3.2"/>
				<rect x="245.3" y="89.2" class="st1" width="8.4" height="3.2"/>
				<rect x="232.3" y="89.2" class="st1" width="8.4" height="3.2"/>
				<polyline class="st1" points="257.1,103.7 257.1,54.3 203.8,54.3 203.8,103.7 				"/>
			</g>
			<g>
				<g>
					<polyline class="st1" points="274.8,103.7 274.8,94.6 296.3,94.6 296.3,103.7 					"/>
					<polyline class="st1" points="277.2,101.8 277.2,96.5 293.9,96.5 293.9,101.8 					"/>
					<rect x="287.8" y="58.7" class="st1" width="8.4" height="3.5"/>
					<line class="st1" x1="296.2" y1="62.2" x2="274.8" y2="62.2"/>
					<line class="st1" x1="296.2" y1="68" x2="274.8" y2="68"/>
					<line class="st1" x1="296.2" y1="73.7" x2="274.8" y2="73.7"/>
					<line class="st1" x1="296.2" y1="79.5" x2="274.8" y2="79.5"/>
					<line class="st1" x1="296.2" y1="85.2" x2="274.8" y2="85.2"/>
					<line class="st1" x1="296.2" y1="91" x2="274.8" y2="91"/>
					<rect x="274.8" y="58.7" class="st1" width="8.4" height="3.5"/>
					<rect x="287.8" y="64.4" class="st1" width="8.4" height="3.5"/>
					<rect x="274.8" y="64.4" class="st1" width="8.4" height="3.5"/>
					<rect x="287.8" y="70.2" class="st1" width="8.4" height="3.5"/>
					<rect x="274.8" y="70.2" class="st1" width="8.4" height="3.5"/>
					<rect x="287.8" y="75.9" class="st1" width="8.4" height="3.5"/>
					<rect x="274.8" y="75.9" class="st1" width="8.4" height="3.5"/>
					<rect x="287.8" y="81.7" class="st1" width="8.4" height="3.5"/>
					<rect x="274.8" y="81.7" class="st1" width="8.4" height="3.5"/>
					<rect x="287.8" y="87.4" class="st1" width="8.4" height="3.5"/>
					<rect x="274.8" y="87.4" class="st1" width="8.4" height="3.5"/>
					<polyline class="st1" points="305,103.7 305,96.2 321.2,96.2 321.2,103.7 					"/>
					<line class="st2" x1="305" y1="94.6" x2="321.2" y2="94.6"/>
					<rect x="312.8" y="58.7" class="st1" width="8.4" height="3.5"/>
					<line class="st1" x1="321.2" y1="62.2" x2="299.8" y2="62.2"/>
					<line class="st1" x1="321.2" y1="68" x2="299.8" y2="68"/>
					<line class="st1" x1="321.2" y1="73.7" x2="299.8" y2="73.7"/>
					<line class="st1" x1="321.2" y1="79.5" x2="299.8" y2="79.5"/>
					<line class="st1" x1="321.2" y1="85.2" x2="299.8" y2="85.2"/>
					<line class="st1" x1="321.2" y1="91" x2="299.8" y2="91"/>
					<rect x="299.8" y="58.7" class="st1" width="8.4" height="3.5"/>
					<rect x="312.8" y="64.4" class="st1" width="8.4" height="3.5"/>
					<rect x="299.8" y="64.4" class="st1" width="8.4" height="3.5"/>
					<rect x="312.8" y="70.2" class="st1" width="8.4" height="3.5"/>
					<rect x="299.8" y="70.2" class="st1" width="8.4" height="3.5"/>
					<rect x="312.8" y="75.9" class="st1" width="8.4" height="3.5"/>
					<rect x="299.8" y="75.9" class="st1" width="8.4" height="3.5"/>
					<rect x="312.8" y="81.7" class="st1" width="8.4" height="3.5"/>
					<rect x="299.8" y="81.7" class="st1" width="8.4" height="3.5"/>
					<rect x="312.8" y="87.4" class="st1" width="8.4" height="3.5"/>
					<rect x="299.8" y="87.4" class="st1" width="8.4" height="3.5"/>
					<polyline class="st1" points="324.6,103.7 324.6,47.5 298,44.5 271.3,47.5 271.3,103.7 					"/>
				</g>
				<rect x="274.8" y="51.4" class="st1" width="46.4" height="4.5"/>
			</g>
			<g>
				<polyline class="st1" points="342.3,103.7 342.3,94.6 363.8,94.6 363.8,103.7 				"/>
				<polyline class="st1" points="344.6,101.8 344.6,96.5 361.4,96.5 361.4,101.8 				"/>
				<line class="st1" x1="363.7" y1="91" x2="342.3" y2="91"/>
				<rect x="355.3" y="87.4" class="st1" width="8.4" height="3.5"/>
				<rect x="342.3" y="87.4" class="st1" width="8.4" height="3.5"/>
				<g>
					<path class="st1" d="M372.5,103.7v-6.3c0-1.6,1.3-2.8,2.8-2.8h2.5c1.6,0,4.1,0,5.7,0h2.5c1.6,0,2.8,1.3,2.8,2.8v6.3"/>
				</g>
				<g>
					<path class="st1" d="M375.3,103.1v-4c0-1,0.8-1.8,1.8-1.8h1.6c1,0,2.7,0,3.7,0h1.6c1,0,1.8,0.8,1.8,1.8v4"/>
				</g>
				<line class="st1" x1="388.7" y1="91" x2="367.3" y2="91"/>
				<rect x="380.3" y="87.4" class="st1" width="8.4" height="3.5"/>
				<rect x="367.3" y="87.4" class="st1" width="8.4" height="3.5"/>
				<line class="st1" x1="363.7" y1="83.4" x2="342.3" y2="83.4"/>
				<rect x="355.3" y="79.9" class="st1" width="8.4" height="3.5"/>
				<rect x="342.3" y="79.9" class="st1" width="8.4" height="3.5"/>
				<line class="st1" x1="388.7" y1="83.4" x2="367.3" y2="83.4"/>
				<rect x="380.3" y="79.9" class="st1" width="8.4" height="3.5"/>
				<rect x="367.3" y="79.9" class="st1" width="8.4" height="3.5"/>
				<line class="st1" x1="363.7" y1="75.9" x2="342.3" y2="75.9"/>
				<rect x="355.3" y="72.4" class="st1" width="8.4" height="3.5"/>
				<rect x="342.3" y="72.4" class="st1" width="8.4" height="3.5"/>
				<line class="st1" x1="388.7" y1="75.9" x2="367.3" y2="75.9"/>
				<rect x="380.3" y="72.4" class="st1" width="8.4" height="3.5"/>
				<rect x="367.3" y="72.4" class="st1" width="8.4" height="3.5"/>
				<line class="st1" x1="363.7" y1="68.4" x2="342.3" y2="68.4"/>
				<rect x="355.3" y="64.9" class="st1" width="8.4" height="3.5"/>
				<rect x="342.3" y="64.9" class="st1" width="8.4" height="3.5"/>
				<line class="st1" x1="388.7" y1="68.4" x2="367.3" y2="68.4"/>
				<rect x="380.3" y="64.9" class="st1" width="8.4" height="3.5"/>
				<rect x="367.3" y="64.9" class="st1" width="8.4" height="3.5"/>
				<line class="st1" x1="363.7" y1="60.9" x2="342.3" y2="60.9"/>
				<rect x="355.3" y="57.3" class="st1" width="8.4" height="3.5"/>
				<rect x="342.3" y="57.3" class="st1" width="8.4" height="3.5"/>
				<line class="st1" x1="388.7" y1="60.9" x2="367.3" y2="60.9"/>
				<rect x="380.3" y="57.3" class="st1" width="8.4" height="3.5"/>
				<rect x="367.3" y="57.3" class="st1" width="8.4" height="3.5"/>
				<line class="st1" x1="363.7" y1="53.3" x2="342.3" y2="53.3"/>
				<rect x="355.3" y="49.8" class="st1" width="8.4" height="3.5"/>
				<rect x="342.3" y="49.8" class="st1" width="8.4" height="3.5"/>
				<line class="st1" x1="388.7" y1="53.3" x2="367.3" y2="53.3"/>
				<rect x="380.3" y="49.8" class="st1" width="8.4" height="3.5"/>
				<rect x="367.3" y="49.8" class="st1" width="8.4" height="3.5"/>
				<line class="st1" x1="363.7" y1="45.8" x2="342.3" y2="45.8"/>
				<rect x="355.3" y="42.3" class="st1" width="8.4" height="3.5"/>
				<rect x="342.3" y="42.3" class="st1" width="8.4" height="3.5"/>
				<line class="st1" x1="388.7" y1="45.8" x2="367.3" y2="45.8"/>
				<rect x="380.3" y="42.3" class="st1" width="8.4" height="3.5"/>
				<rect x="367.3" y="42.3" class="st1" width="8.4" height="3.5"/>
				<line class="st1" x1="363.7" y1="38.3" x2="342.3" y2="38.3"/>
				<rect x="355.3" y="34.7" class="st1" width="8.4" height="3.5"/>
				<rect x="342.3" y="34.7" class="st1" width="8.4" height="3.5"/>
				<line class="st1" x1="388.7" y1="38.3" x2="367.3" y2="38.3"/>
				<rect x="380.3" y="34.7" class="st1" width="8.4" height="3.5"/>
				<rect x="367.3" y="34.7" class="st1" width="8.4" height="3.5"/>
				<path class="st1" d="M392.1,103.7V25.5c0,0-0.5-3-26.7-3c-26.1,0-26.7,3-26.7,3v78.2"/>
				<rect x="338.8" y="25.8" class="st1" width="53.3" height="4.5"/>
			</g>
			<g>
				<polyline class="st2" points="26.3,19.6 26.3,13.6 114.6,13.6 114.6,19.6 				"/>
				<g>
					<g>
						<g>
							<line class="st1" x1="68.8" y1="90.1" x2="47.4" y2="90.1"/>
							<rect x="60.4" y="86.4" class="st1" width="8.4" height="3.8"/>
							<rect x="47.4" y="86.4" class="st1" width="8.4" height="3.8"/>
							<line class="st1" x1="43.8" y1="82.1" x2="22.5" y2="82.1"/>
							<rect x="35.5" y="78.3" class="st1" width="8.4" height="3.8"/>
							<rect x="22.5" y="78.3" class="st1" width="8.4" height="3.8"/>
							<line class="st1" x1="68.8" y1="82.1" x2="47.4" y2="82.1"/>
							<rect x="60.4" y="78.3" class="st1" width="8.4" height="3.8"/>
							<rect x="47.4" y="78.3" class="st1" width="8.4" height="3.8"/>
							<line class="st1" x1="43.8" y1="74.1" x2="22.5" y2="74.1"/>
							<rect x="35.5" y="70.3" class="st1" width="8.4" height="3.8"/>
							<rect x="22.5" y="70.3" class="st1" width="8.4" height="3.8"/>
							<line class="st1" x1="68.8" y1="74.1" x2="47.4" y2="74.1"/>
							<rect x="60.4" y="70.3" class="st1" width="8.4" height="3.8"/>
							<rect x="47.4" y="70.3" class="st1" width="8.4" height="3.8"/>
							<line class="st1" x1="43.8" y1="66.1" x2="22.5" y2="66.1"/>
							<rect x="35.5" y="62.3" class="st1" width="8.4" height="3.8"/>
							<rect x="22.5" y="62.3" class="st1" width="8.4" height="3.8"/>
							<line class="st1" x1="68.8" y1="66.1" x2="47.4" y2="66.1"/>
							<rect x="60.4" y="62.3" class="st1" width="8.4" height="3.8"/>
							<rect x="47.4" y="62.3" class="st1" width="8.4" height="3.8"/>
							<line class="st1" x1="43.8" y1="58.1" x2="22.5" y2="58.1"/>
							<rect x="35.5" y="54.3" class="st1" width="8.4" height="3.8"/>
							<rect x="22.5" y="54.3" class="st1" width="8.4" height="3.8"/>
							<line class="st1" x1="68.8" y1="58.1" x2="47.4" y2="58.1"/>
							<rect x="60.4" y="54.3" class="st1" width="8.4" height="3.8"/>
							<rect x="47.4" y="54.3" class="st1" width="8.4" height="3.8"/>
							<line class="st1" x1="43.8" y1="50.1" x2="22.5" y2="50.1"/>
							<rect x="35.5" y="46.3" class="st1" width="8.4" height="3.8"/>
							<rect x="22.5" y="46.3" class="st1" width="8.4" height="3.8"/>
							<line class="st1" x1="68.8" y1="50.1" x2="47.4" y2="50.1"/>
							<rect x="60.4" y="46.3" class="st1" width="8.4" height="3.8"/>
							<rect x="47.4" y="46.3" class="st1" width="8.4" height="3.8"/>
							<line class="st1" x1="43.8" y1="42" x2="22.5" y2="42"/>
							<rect x="35.5" y="38.3" class="st1" width="8.4" height="3.8"/>
							<rect x="22.5" y="38.3" class="st1" width="8.4" height="3.8"/>
							<line class="st1" x1="68.8" y1="42" x2="47.4" y2="42"/>
							<rect x="60.4" y="38.3" class="st1" width="8.4" height="3.8"/>
							<rect x="47.4" y="38.3" class="st1" width="8.4" height="3.8"/>
							<line class="st1" x1="43.8" y1="34" x2="22.5" y2="34"/>
							<rect x="35.5" y="30.2" class="st1" width="8.4" height="3.8"/>
							<rect x="22.5" y="30.2" class="st1" width="8.4" height="3.8"/>
							<line class="st1" x1="68.8" y1="34" x2="47.4" y2="34"/>
							<rect x="60.4" y="30.2" class="st1" width="8.4" height="3.8"/>
							<rect x="47.4" y="30.2" class="st1" width="8.4" height="3.8"/>
							<line class="st1" x1="18.9" y1="20.3" x2="18.9" y2="103.7"/>
							<line class="st1" x1="122" y1="103.7" x2="122" y2="20.3"/>
							<rect x="18.9" y="19.6" class="st1" width="103" height="4.8"/>
							<line class="st1" x1="119" y1="19.6" x2="119" y2="24.4"/>
							<line class="st1" x1="114.9" y1="19.6" x2="114.9" y2="24.4"/>
							<line class="st1" x1="110.9" y1="19.6" x2="110.9" y2="24.4"/>
							<line class="st1" x1="106.8" y1="19.6" x2="106.8" y2="24.4"/>
							<line class="st1" x1="102.8" y1="19.6" x2="102.8" y2="24.4"/>
							<line class="st1" x1="98.7" y1="19.6" x2="98.7" y2="24.4"/>
							<line class="st1" x1="94.7" y1="19.6" x2="94.7" y2="24.4"/>
							<line class="st1" x1="90.6" y1="19.6" x2="90.6" y2="24.4"/>
							<line class="st1" x1="86.5" y1="19.6" x2="86.5" y2="24.4"/>
							<line class="st1" x1="82.5" y1="19.6" x2="82.5" y2="24.4"/>
							<line class="st1" x1="78.4" y1="19.6" x2="78.4" y2="24.4"/>
							<line class="st1" x1="74.4" y1="19.6" x2="74.4" y2="24.4"/>
							<line class="st1" x1="70.3" y1="19.6" x2="70.3" y2="24.4"/>
							<line class="st1" x1="66.3" y1="19.6" x2="66.3" y2="24.4"/>
							<line class="st1" x1="62.2" y1="19.6" x2="62.2" y2="24.4"/>
							<line class="st1" x1="58.1" y1="19.6" x2="58.1" y2="24.4"/>
							<line class="st1" x1="54.1" y1="19.6" x2="54.1" y2="24.4"/>
							<line class="st1" x1="50" y1="19.6" x2="50" y2="24.4"/>
							<line class="st1" x1="46" y1="19.6" x2="46" y2="24.4"/>
							<line class="st1" x1="41.9" y1="19.6" x2="41.9" y2="24.4"/>
							<line class="st1" x1="37.9" y1="19.6" x2="37.9" y2="24.4"/>
							<line class="st1" x1="33.8" y1="19.6" x2="33.8" y2="24.4"/>
							<line class="st1" x1="29.7" y1="19.6" x2="29.7" y2="24.4"/>
							<line class="st1" x1="25.7" y1="19.6" x2="25.7" y2="24.4"/>
							<line class="st1" x1="21.6" y1="19.6" x2="21.6" y2="24.4"/>
						</g>
						<g>
							<polyline class="st1" points="47.4,103.7 47.4,94 93.4,94 93.4,103.7 							"/>
							<polyline class="st1" points="49.8,101.7 49.8,96 91.1,96 91.1,101.7 							"/>
							<line class="st1" x1="53.4" y1="101.7" x2="87.4" y2="101.7"/>
							<line class="st1" x1="93.4" y1="90.1" x2="72" y2="90.1"/>
							<rect x="85" y="86.4" class="st1" width="8.4" height="3.8"/>
							<rect x="72" y="86.4" class="st1" width="8.4" height="3.8"/>
							<rect x="114.9" y="86.4" class="st1" width="3.4" height="11.5"/>
							<rect x="22.5" y="86.4" class="st1" width="3.4" height="11.5"/>
							<line class="st1" x1="93.4" y1="82.1" x2="72" y2="82.1"/>
							<rect x="85" y="78.3" class="st1" width="8.4" height="3.8"/>
							<rect x="72" y="78.3" class="st1" width="8.4" height="3.8"/>
							<line class="st1" x1="118.3" y1="82.1" x2="96.9" y2="82.1"/>
							<rect x="109.9" y="78.3" class="st1" width="8.4" height="3.8"/>
							<rect x="96.9" y="78.3" class="st1" width="8.4" height="3.8"/>
							<line class="st1" x1="93.4" y1="74.1" x2="72" y2="74.1"/>
							<rect x="85" y="70.3" class="st1" width="8.4" height="3.8"/>
							<rect x="72" y="70.3" class="st1" width="8.4" height="3.8"/>
							<line class="st1" x1="118.3" y1="74.1" x2="96.9" y2="74.1"/>
							<rect x="109.9" y="70.3" class="st1" width="8.4" height="3.8"/>
							<rect x="96.9" y="70.3" class="st1" width="8.4" height="3.8"/>
							<line class="st1" x1="93.4" y1="66.1" x2="72" y2="66.1"/>
							<rect x="85" y="62.3" class="st1" width="8.4" height="3.8"/>
							<rect x="72" y="62.3" class="st1" width="8.4" height="3.8"/>
							<line class="st1" x1="118.3" y1="66.1" x2="96.9" y2="66.1"/>
							<rect x="109.9" y="62.3" class="st1" width="8.4" height="3.8"/>
							<rect x="96.9" y="62.3" class="st1" width="8.4" height="3.8"/>
							<line class="st1" x1="93.4" y1="58.1" x2="72" y2="58.1"/>
							<rect x="85" y="54.3" class="st1" width="8.4" height="3.8"/>
							<rect x="72" y="54.3" class="st1" width="8.4" height="3.8"/>
							<line class="st1" x1="118.3" y1="58.1" x2="96.9" y2="58.1"/>
							<rect x="109.9" y="54.3" class="st1" width="8.4" height="3.8"/>
							<rect x="96.9" y="54.3" class="st1" width="8.4" height="3.8"/>
							<line class="st1" x1="93.4" y1="50.1" x2="72" y2="50.1"/>
							<rect x="85" y="46.3" class="st1" width="8.4" height="3.8"/>
							<rect x="72" y="46.3" class="st1" width="8.4" height="3.8"/>
							<line class="st1" x1="118.3" y1="50.1" x2="96.9" y2="50.1"/>
							<rect x="109.9" y="46.3" class="st1" width="8.4" height="3.8"/>
							<rect x="96.9" y="46.3" class="st1" width="8.4" height="3.8"/>
							<line class="st1" x1="93.4" y1="42" x2="72" y2="42"/>
							<rect x="85" y="38.3" class="st1" width="8.4" height="3.8"/>
							<rect x="72" y="38.3" class="st1" width="8.4" height="3.8"/>
							<line class="st1" x1="118.3" y1="42" x2="96.9" y2="42"/>
							<rect x="109.9" y="38.3" class="st1" width="8.4" height="3.8"/>
							<rect x="96.9" y="38.3" class="st1" width="8.4" height="3.8"/>
							<line class="st1" x1="93.4" y1="34" x2="72" y2="34"/>
							<rect x="85" y="30.2" class="st1" width="8.4" height="3.8"/>
							<rect x="72" y="30.2" class="st1" width="8.4" height="3.8"/>
							<line class="st1" x1="118.3" y1="34" x2="96.9" y2="34"/>
							<rect x="109.9" y="30.2" class="st1" width="8.4" height="3.8"/>
							<rect x="96.9" y="30.2" class="st1" width="8.4" height="3.8"/>
							<path class="st3" d="M109.7,103.7c-0.3-0.3-0.5-2.4-0.6-4.8l0,0l0.8-1.1c0.2,0.1,0.3,0.1,0.5,0.1c0.9,0,1.6-1.1,1.6-2.5
								c0,0,0,0,0-0.1c0.7-0.2,1.2-1.2,1.2-2.4c0-1.2-0.5-2.2-1.3-2.4c-0.1-1.2-0.8-2.1-1.6-2.1c0-1.4-0.7-2.5-1.6-2.5
								c-0.9,0-1.6,1.1-1.6,2.5c-0.8,0-1.4,0.9-1.6,2.1c-0.7,0.2-1.3,1.2-1.3,2.4c0,1.2,0.5,2.2,1.2,2.4c0,0,0,0,0,0.1
								c0,1.4,0.7,2.5,1.6,2.5c0.2,0,0.4,0,0.5-0.1l0.9,0.8c-0.1,2.5-0.4,4.8-0.7,5.1 M107.8,97.7c0.1,0,0.1-0.1,0.2-0.1
								c0.2,0.2,0.4,0.3,0.6,0.3c0,0.1,0,0.3,0,0.4L107.8,97.7z M109,98.6c0-0.2,0-0.4,0-0.7c0.2,0,0.4-0.1,0.6-0.3
								c0.1,0.1,0.1,0.1,0.2,0.1L109,98.6z"/>
							<path class="st3" d="M99.7,103.7c-0.3-0.3-0.5-2.4-0.6-4.8l0,0l0.8-1.1c0.2,0.1,0.3,0.1,0.5,0.1c0.9,0,1.6-1.1,1.6-2.5
								c0,0,0,0,0-0.1c0.7-0.2,1.2-1.2,1.2-2.4c0-1.2-0.5-2.2-1.3-2.4c-0.1-1.2-0.8-2.1-1.6-2.1c0-1.4-0.7-2.5-1.6-2.5
								c-0.9,0-1.6,1.1-1.6,2.5c-0.8,0-1.4,0.9-1.6,2.1c-0.7,0.2-1.3,1.2-1.3,2.4c0,1.2,0.5,2.2,1.2,2.4c0,0,0,0,0,0.1
								c0,1.4,0.7,2.5,1.6,2.5c0.2,0,0.4,0,0.5-0.1l0.9,0.8c-0.1,2.5-0.4,4.8-0.7,5.1 M97.8,97.7c0.1,0,0.1-0.1,0.2-0.1
								c0.2,0.2,0.4,0.3,0.6,0.3c0,0.1,0,0.3,0,0.4L97.8,97.7z M99,98.6c0-0.2,0-0.4,0-0.7c0.2,0,0.4-0.1,0.6-0.3
								c0.1,0.1,0.1,0.1,0.2,0.1L99,98.6z"/>
						</g>
					</g>
					<path class="st3" d="M42.8,103.7c-0.3-0.3-0.5-2.4-0.6-4.8l0,0l0.8-1.1c0.2,0.1,0.3,0.1,0.5,0.1c0.9,0,1.6-1.1,1.6-2.5
						c0,0,0,0,0-0.1c0.7-0.2,1.2-1.2,1.2-2.4c0-1.2-0.5-2.2-1.3-2.4c-0.1-1.2-0.8-2.1-1.6-2.1c0-1.4-0.7-2.5-1.6-2.5
						c-0.9,0-1.6,1.1-1.6,2.5c-0.8,0-1.4,0.9-1.6,2.1c-0.7,0.2-1.3,1.2-1.3,2.4c0,1.2,0.5,2.2,1.2,2.4c0,0,0,0,0,0.1
						c0,1.4,0.7,2.5,1.6,2.5c0.2,0,0.4,0,0.5-0.1l0.9,0.8c-0.1,2.5-0.4,4.8-0.7,5.1 M41,97.7c0.1,0,0.1-0.1,0.2-0.1
						c0.2,0.2,0.4,0.3,0.6,0.3c0,0.1,0,0.3,0,0.4L41,97.7z M42.1,98.6c0-0.2,0-0.4,0-0.7c0.2,0,0.4-0.1,0.6-0.3
						c0.1,0.1,0.1,0.1,0.2,0.1L42.1,98.6z"/>
					<path class="st3" d="M32.8,103.7c-0.3-0.3-0.5-2.4-0.6-4.8l0,0l0.8-1.1c0.2,0.1,0.3,0.1,0.5,0.1c0.9,0,1.6-1.1,1.6-2.5
						c0,0,0,0,0-0.1c0.7-0.2,1.2-1.2,1.2-2.4c0-1.2-0.5-2.2-1.3-2.4c-0.1-1.2-0.8-2.1-1.6-2.1c0-1.4-0.7-2.5-1.6-2.5
						c-0.9,0-1.6,1.1-1.6,2.5c-0.8,0-1.4,0.9-1.6,2.1c-0.7,0.2-1.3,1.2-1.3,2.4c0,1.2,0.5,2.2,1.2,2.4c0,0,0,0,0,0.1
						c0,1.4,0.7,2.5,1.6,2.5c0.2,0,0.4,0,0.5-0.1l0.9,0.8c-0.1,2.5-0.4,4.8-0.7,5.1 M31,97.7c0.1,0,0.1-0.1,0.2-0.1
						c0.2,0.2,0.4,0.3,0.6,0.3c0,0.1,0,0.3,0,0.4L31,97.7z M32.1,98.6c0-0.2,0-0.4,0-0.7c0.2,0,0.4-0.1,0.6-0.3
						c0.1,0.1,0.1,0.1,0.2,0.1L32.1,98.6z"/>
				</g>
			</g>
		</g>
		<g>
			<g>
				<g>
					<path class="st4" d="M87.5,265.5l0,1c-6.5,0-12.9,0-19.4,0c-6.6,0-13.3-0.4-19.9,0.4c-4.5,0.6-9.5,1.5-13.9,0.2
						c-0.6-0.2-1.2-0.4-1.6-0.8c0.2-0.4,0.2-0.8,0.1-1.4c-0.3-1.4-0.6-2.8-0.6-4.2c-0.4-7.8-0.6-15.6,0.2-23.3
						c0.4-3.9,1-7.8,2.3-11.5c1.7-4.9,4.4-9.2,8.4-12.6c2.4-2,5.2-3.6,8.1-4.9c4.2-1.8,8.6-3.2,12.9-4.5c0.5-0.1,0.9-0.2,1.4-0.3
						c0.2,0.4,0.4,0.7,0.6,0.9c2.3,2.9,4.1,6.2,5.7,9.5c4.1,9,7.7,18.3,10.4,27.8c1.2,4.3,2.3,8.7,2.9,13.1c0.3,2.6,0.6,5.2,0.9,7.9
						c0.1,0.6,0.2,1.2,0.4,1.7C86.4,265.2,86.9,265.5,87.5,265.5z M63,264.7c0.8-0.1,1.3-0.9,1.3-1.8c0-0.5-0.1-1-0.1-1.5
						c-0.1-2.2-0.2-4.4-0.2-6.6c0-2.2-0.5-4.5,0.1-6.7c0-0.1,0-0.3,0-0.4c-0.2-0.9-1-1.5-1.9-1.4c-0.8,0.1-1.3,0.7-1.3,1.7
						c0,0.5,0,1.1,0,1.6c0,0,0,0,0,0c0.1,1.7,0.2,3.3,0.2,5c0,2.2,0,4.3,0.1,6.5c0,0.8,0,1.5,0.2,2.2
						C61.4,264.3,62.2,264.8,63,264.7z"/>
					<path class="st4" d="M117.5,266.3c-10,0.1-20,0.2-30,0.2l0-1c0.1,0,0.2,0,0.4,0c0.7-0.2,1.1-0.7,1.1-1.4c0-0.2,0-0.4-0.1-0.6
						c-0.2-1.2-0.3-2.3-0.5-3.5c-0.5-3.6-0.9-7.3-1.8-10.9c-2.2-9.4-5.3-18.5-8.9-27.5c-2.3-5.7-4.7-11.3-8-16.5
						c-0.5-0.8-1.2-1.6-1.4-2.6c0-0.2-0.3-0.4-0.4-0.6c-0.2-0.2-0.4-0.5-0.5-0.7c0-0.1-0.1-0.1-0.1-0.2l0,0c0.1,0.1,0.2,0.2,0.3,0.2
						c0.1,0.3,0.3,0.5,0.7,0.4c1.1-0.5,2.3-1,3.4-1.5c0,0.1,0,0.2-0.1,0.3c-0.1,0.2,0.1,0.6,0.3,0.8c0.8,1,1.6,2.1,2.7,2.8
						c0.7,0.4,1.3,0.9,2,1.3c2.9,1.9,6,3.2,9.2,4.5c5.9,2.5,12,4,18.4,4.6c3.8,0.3,7.6,0.2,11.2-0.9c6-1.8,10.8-5.3,14.8-10.2
						c0.6,0.1,1.3,0.3,2.2,0.4c0.8,3,1.7,6,2.2,9.1c0.6,3.5,0.9,7.1,1.3,10.6c0.6,5.6,1,11.3,1.1,16.9c0.2,6.4,0.2,12.8,0.2,19.1
						c0,0.3,0,0.6,0,0.8c0.1,0.7,0.6,1.2,1.3,1.3c0.7,0.1,1.4-0.3,1.6-1c0.1-0.3,0.1-0.7,0.1-1c-0.1-6.7-0.2-13.5-0.4-20.2
						c-0.2-5.3-0.7-10.6-1.1-15.9c-0.5-6.3-1.3-12.5-3.1-18.5c-0.1-0.3-0.1-0.6-0.2-0.8c0.2,0,0.2-0.1,0.3-0.1
						c0.3,0,0.6,0.1,0.9,0.1c5.3,1,10.3,3,14.6,6.3c1.4,1,2.7,2.1,4,3.2c3,2.4,5,5.6,6.3,9.1c1.2,3.4,2,6.8,2.7,10.3
						c1,5.3,1.3,10.7,1.8,16c0.4,3.4,0.8,6.8,1.2,10.2c0,0.3,0.1,0.5,0.2,0.8c0.2,0.5,0.6,0.8,1.1,0.8c1,2.1-3.6,3-4.8,3.2
						c-4,0.9-8.1,1.2-12.1,1.4c-3.2,0.2-6.4,0.2-9.7,0.2C134,266.2,125.8,266.3,117.5,266.3z M160,258.8c0-0.6,0-1.2-0.1-1.7
						c0,0,0,0,0,0c0-0.7-0.1-1.4-0.1-2.1c-0.4-4-0.7-7.9-1.1-11.9c-0.1-1.1-0.7-1.7-1.6-1.7c-0.9,0-1.5,0.7-1.5,1.8
						c0,0.7,0.1,1.3,0.1,2c0.5,4.5,1.1,9.1,1.2,13.6c0,1,0.6,1.6,1.5,1.6C159.3,260.4,160,259.8,160,258.8z"/>
					<path class="st5" d="M92.5,105.5c-0.8,1.7-0.9,3.4-1,5.2c0-0.1,0-0.2,0-0.2c-0.2-0.9-1-1.5-1.8-1.3c-0.8,0.2-1.3,0.9-1.2,1.9
						c0.4,1.9,0.1,3.8-0.6,5.7c-1,2.8-2.3,5.4-4,7.9c-1.3,1.8-2.6,3.6-3.9,5.4c-1.4,1.9-2.4,4.1-3,6.4c-0.1,0.3-0.2,0.5-0.3,0.8
						c-0.3-0.2-0.6-0.3-0.9-0.4c-3.1-1.5-6.9-0.8-9.2,1.7c-1.1,1.2-1.8,2.7-2.1,4.3c-0.1,0.8-0.2,1.5-0.3,2.4
						c-0.2-0.1-0.3-0.2-0.4-0.3c-1.7-1.8-3-3.8-3.7-6.2c-0.7-2.3-0.4-4.6,0.3-6.9c0.8-2.7,1.7-5.4,2.6-8c1.9-5.8,3.9-11.5,6.4-17
						c1.4-3.1,3.1-6.1,5.1-8.9c1.2-1.6,2.6-3,4.2-4.2c1.8-1.2,3.8-2,6-1.9c0.6,0,1.1,0.1,1.6,0.5c0.4,0.4,1,0.4,1.5,0.2
						c0.6-0.3,0.8-0.8,0.8-1.4c0-0.5-0.2-1-0.6-1.4c0.2-0.3,0.5-0.5,0.7-0.8c0.4,0.1,0.9-0.1,1.3-0.4c0.3-0.2,0.5-0.5,0.7-0.7
						c1.9-1.3,3.8-2.6,5.7-3.9c1.8-1.2,3.7-2,5.8-2.5c3.6-0.9,7.3-1,11-0.6c3.5,0.4,6.6,1.6,9.5,3.6c2.3,1.6,4.6,3.2,6.9,4.7
						c6.2,4.2,12,8.9,17.6,13.9c2.2,1.9,3.6,4.4,4.3,7.2c0.2,0.9,0.4,1.8,0.5,2.7c0.4,2.6,0.2,5.1-0.8,7.6c-0.4,0.9-0.3,1.8,0.2,2.7
						c1.5,2.5,1.7,5.2,1.4,8c-0.4,2.9-1.7,5.4-3.3,7.7c-0.7,1.1-1.1,2.1-1.1,3.5c0.1,3-1.2,5.5-3.2,7.7c0-0.2,0-0.5,0-0.7
						c-0.1-3.7-0.1-7.3-0.2-11c0-1.5-0.2-3.1-0.4-4.6c0-0.4-0.2-0.7-0.4-0.9c0-0.6,0.1-1.1,0.1-1.7c0.4,0.1,0.9,0.1,1.3,0
						c1-0.1,1.6-0.8,1.5-1.6c-0.1-0.8-0.7-1.4-1.6-1.4c-0.5,0-0.9-0.1-1.4-0.2c-0.7-0.2-1.3-0.4-2-0.8c-1.5-0.8-2.8-1.8-4-2.9
						c-2.9-2.7-5.5-5.6-7.9-8.8c-2-2.6-4-5.1-6.1-7.7c-1.3-1.6-2.8-3-4.4-4.3c-2.9-2.4-6.3-3.4-11.2-3.3c-2.7-0.1-5.9,1-8.9,2.9
						c-0.2-0.2-0.5-0.2-0.7-0.2c-0.9,0.2-1.9,1.3-2.6,1.9c-0.8,0.7-1.4,1.4-2.1,2.2c-0.4-0.5-0.7-1-1-1.5
						C93.4,105.1,92.7,105,92.5,105.5z"/>
					<path class="st6" d="M126.6,202.3c0.2,0.1,0.3,0.1,0.6,0.3c-0.5,0.5-0.8,0.9-1.2,1.3c-3.7,3.7-8,6.5-13.2,7.4
						c-3.2,0.6-6.5,0.6-9.7,0.2c-5.6-0.7-11-2.1-16.3-4.3c-3.1-1.3-6.1-2.6-8.9-4.5c-0.6-0.4-1.1-0.8-1.7-1.2
						c-0.5-0.4-0.9-0.9-1.2-1.7c0.1,0,0.2-0.1,0.3-0.2c2.4-1.4,4.3-3.4,5.8-5.7c1.6-2.4,2.8-5,3.5-7.9c1.2-4.8,2.2-9.6,2.3-14.6
						c0-0.8,0-1.6,0-2.4c0.1-0.1,0.1-0.1,0.2-0.2c0.1,0.2,0.3,0.5,0.4,0.7c1.8,2,3.6,4.2,5.5,6.1c5.8,5.9,12.9,9.4,21.1,10.7
						c0.9,0.1,1.8,0.2,2.8,0.3c-1,1.2-0.9,2.3-0.8,3.6c0.4,3.6,2.3,6.3,5,8.6C122.8,200.3,124.6,201.6,126.6,202.3z"/>
					<path class="st6" d="M78.8,156.2c-0.2,0-0.4,0.1-0.5,0.2c-0.2-0.1-0.3-0.2-0.5-0.2c-0.4-0.1-0.7-0.1-1.1-0.2
						c-1.6-0.2-3-0.8-4.1-1.9c-0.6-0.6-1.3-1.2-1.9-1.9c-1.4-1.6-2.6-3.3-3-5.4c-0.3-1.8-0.3-3.6,0.5-5.2c1.1-2.2,3.5-3.2,5.8-2.4
						c0.2,0.1,0.6,0.2,0.7,0.4c0.4,0.9,1,1.2,2,1.2c0,0.5,0,0.9,0.1,1.3c0.2,1,0.4,2.1,0.8,3.1c0.3,0.9,1.2,1.1,2,0.8
						c0.7-0.3,1-1.1,0.8-2c-0.1-0.4-0.3-0.7-0.3-1.1c-0.5-2.9-0.5-5.8,0.9-8.5c0.5-0.9,0.9-1.8,1.5-2.7c1.2-1.8,2.4-3.5,3.7-5.2
						c1.9-2.7,3.4-5.7,4.6-8.7c0.6-1.4,0.8-2.9,1-4.5c0.3,0.2,0.8,0.1,0.9-0.3c0.3-2,0.1-4,0.7-5.9c0.3,0.4,0.6,0.8,0.8,1.2
						c0.2,0.3,0.7,0.4,1,0.1c0.5-0.7,1.1-1.3,1.7-1.9c-0.1,0.6,0.1,1.2,0.7,1.5c0.7,0.4,1.7,0.2,2.1-0.6c0.4-0.8,1.1-1.2,1.7-1.7
						c2.2-1.5,4.5-2.4,7.2-2.7c4-0.4,7.6,0.4,10.6,3.1c1.2,1.1,2.4,2.2,3.5,3.5c2,2.4,3.9,4.9,5.8,7.4c2.4,3.1,4.9,6.1,7.8,8.8
						c1.3,1.2,2.7,2.3,4.2,3.3c1,0.7,2,1.2,3.2,1.5c0,0.5,0,1-0.1,1.5c-0.8,0.1-1.4,0.7-1.4,1.6c0,0.4,0.1,0.8,0.1,1.2
						c0.1,1,0.3,2,0.3,3c0.1,4.1,0.1,8.2,0.1,12.4c0,3-0.2,5.9-0.7,8.8c-1.6,9.4-6.3,16.8-14.6,21.8c-3.4,2-7,2.9-10.9,2.5
						c-6.5-0.6-12.4-2.9-17.6-6.9c-4.4-3.4-8-7.6-11.2-12.2c-1-1.4-1.8-3-2.4-4.7c-0.3-0.8-0.6-1.5-0.9-2.3c-0.2-0.4-0.4-0.7-0.7-1
						c-0.6-0.6-1.4-0.6-2-0.2c0,0-0.1,0-0.1,0.1C80.5,156.2,79.4,156.2,78.8,156.2z"/>
					<path d="M168.7,261.1c-0.4-0.7,0.6-1.3,1.1-0.6c0.1,0.2,0.2,0.3,0.2,0.5c-0.2,0.2-0.5,0.3-0.8,0.3c-0.2,0-0.3,0-0.4,0
						C168.8,261.2,168.8,261.2,168.7,261.1z"/>
					<path d="M159.9,257.1c0,0.6,0.1,1.2,0.1,1.7c0,1-0.7,1.6-1.5,1.6c-0.8,0-1.5-0.6-1.5-1.6c-0.1-4.6-0.7-9.1-1.2-13.6
						c-0.1-0.6-0.1-1.3-0.1-2c0-1.1,0.6-1.7,1.5-1.8c0.9,0,1.5,0.6,1.6,1.7c0.4,4,0.7,7.9,1.1,11.9
						C159.9,255.7,159.9,256.4,159.9,257.1C159.9,257.1,159.9,257.1,159.9,257.1z"/>
					<path d="M147.5,129.4c0.1,0.8-0.5,1.5-1.5,1.6c-0.4,0-0.9,0-1.3,0c0-0.7,0-1.3,0-2c0-0.3-0.2-0.5-0.4-0.6l0.2-0.6
						c0.4,0.1,0.9,0.2,1.4,0.2C146.8,128.1,147.4,128.6,147.5,129.4z"/>
					<path d="M144.7,129c0,0.7,0,1.3,0,2c-0.1,0-0.2,0-0.4,0c-0.3-0.1-0.6-0.1-0.9-0.2c0-0.6,0-1.2,0-1.8c0-0.5,0.5-0.7,0.9-0.6
						C144.6,128.6,144.7,128.7,144.7,129z"/>
					<path d="M144.6,132.8c-0.1,0.7-0.1,1.4-0.3,2.1c-0.1,0.8-1.4,0.5-1.2-0.3c0.1-0.7,0.2-1.5,0.3-2.2c0,0,0,0,0,0
						C143.9,132.3,144.3,132.4,144.6,132.8z"/>
					<path class="st5" d="M144.7,131.1c0,0.6,0,1.1-0.1,1.7c-0.3-0.3-0.7-0.5-1.2-0.4c0,0,0,0,0,0c0-0.5,0.1-1,0.1-1.5
						c0.3,0.1,0.6,0.1,0.9,0.2C144.5,131,144.6,131,144.7,131.1z"/>
					<path d="M98.9,105c0.4,0.7,1.5,0.1,1.1-0.6c0.2,0.3,0.2,0.3,0.4,0c0.1-0.2,0.2-0.4,0.1-0.6c-0.1-0.2-0.2-0.5-0.4-0.6
						c3-1.9,6.2-3.1,8.9-2.9c4.9-0.1,8.3,0.9,11.2,3.3c1.6,1.3,3.1,2.7,4.4,4.3c2,2.5,4.1,5.1,6.1,7.7c2.4,3.1,5,6.1,7.9,8.8
						c1.2,1.1,2.5,2.1,4,2.9c0.6,0.3,1.3,0.6,2,0.8l-0.2,0.6c-0.4-0.1-0.9,0.1-0.9,0.6c0,0.6,0,1.2,0,1.8c-1.1-0.3-2.2-0.8-3.2-1.5
						c-1.4-1-2.9-2.1-4.2-3.3c-2.9-2.7-5.4-5.6-7.8-8.8c-1.9-2.5-3.8-5-5.8-7.4c-1-1.3-2.3-2.4-3.5-3.5c-3-2.8-6.6-3.6-10.6-3.1
						c-2.6,0.3-5,1.2-7.2,2.7c-0.7,0.5-1.3,0.9-1.7,1.7c-0.4,0.8-1.4,1-2.1,0.6c-0.6-0.3-0.8-0.9-0.7-1.5v0c0.7-0.7,1.4-1.3,2.1-1.9
						C98.8,104.8,98.9,104.9,98.9,105z"/>
					<path d="M100.5,103.7c0.1,0.2,0,0.4-0.1,0.6c-0.2,0.4-0.2,0.4-0.4,0c0.4,0.7-0.7,1.3-1.1,0.6c0-0.1-0.1-0.2-0.1-0.2
						c-0.8,0.6-1.5,1.2-2.1,1.9c0-0.2,0.1-0.4,0.2-0.6c0.4-0.8,0.9-1.4,1.6-1.9c0.5-0.4,1-0.7,1.6-1.1
						C100.3,103.2,100.4,103.5,100.5,103.7z"/>
					<path class="st5" d="M94.6,107c0.7-0.8,1.3-1.5,2.1-2.2c0.7-0.6,1.7-1.6,2.6-1.9c0.3-0.1,0.5,0,0.7,0.2
						c-0.5,0.3-1.1,0.7-1.6,1.1c-0.7,0.5-1.2,1.1-1.6,1.9c-0.1,0.2-0.1,0.4-0.2,0.6v0c-0.6,0.6-1.1,1.2-1.7,1.9
						c-0.3,0.3-0.8,0.2-1-0.1c-0.2-0.4-0.5-0.8-0.8-1.2c-0.5,1.9-0.4,4-0.7,5.9c-0.1,0.5-0.5,0.5-0.9,0.3c0-0.1,0-0.2,0-0.4
						c0-0.8,0-1.6-0.1-2.4c0.1-1.8,0.2-3.5,1-5.2c0.2-0.4,0.9-0.4,1.1,0C93.9,106,94.3,106.5,94.6,107z"/>
					<path d="M91.5,110.6c0.1,0.8,0.2,1.6,0.1,2.4c0,0.1,0,0.2,0,0.4c-0.2-0.1-0.4-0.4-0.3-0.7C91.4,112,91.5,111.3,91.5,110.6z"/>
					<path d="M88.5,87.7c0.3-0.3,0.7-0.7,1-1c0.1-0.1,0.2-0.2,0.3-0.3c0,0,0,0,0-0.1c0.1-0.3,0.4-0.5,0.7-0.4c0.5,0.1,0.6,0.7,0.4,1
						c-0.2,0.3-0.6,0.6-0.9,0.9c-0.3,0.3-0.7,0.6-1,0.9c-0.2,0-0.5-0.1-0.7-0.3c-0.1-0.1-0.3-0.2-0.4-0.4
						C88.2,88,88.3,87.9,88.5,87.7z"/>
					<path class="st5" d="M88.4,89.6c-0.3-0.3-0.6-0.5-1-0.6c0,0-0.1,0-0.1,0c0.2-0.3,0.5-0.5,0.7-0.8c0.1,0.1,0.2,0.3,0.4,0.4
						c0.2,0.2,0.4,0.3,0.7,0.3C88.9,89.1,88.6,89.3,88.4,89.6z"/>
					<path d="M78.8,157.5c0.1,0,0.2,0,0.3,0c0,0.1,0,0.3,0,0.4c-0.1,0.8-0.7,1.3-1.6,1.3c-2.4,0-4.6-0.7-6.5-2.3
						c-2-1.8-3.8-3.7-5.1-6.1c-0.3-0.5-0.6-0.9-1.1-1.2c-1.7-1.1-3.2-2.5-4.4-4.2c-3.2-4.2-4.4-8.8-2.8-13.9
						c1.2-3.9,2.4-7.7,3.8-11.5c1.6-4.6,3.3-9.1,5.1-13.6c1.4-3.6,3.4-6.9,5.6-10.1c1.3-1.9,2.9-3.6,4.8-4.9c2.8-2.1,5.9-3,9.4-2.6
						c0.3,0,0.7,0.1,1,0.2c-0.3,0.4-0.6,0.7-0.8,1.1c-0.4,0.7,0.7,1.3,1.1,0.6c0.2-0.4,0.5-0.8,0.8-1.1c0.3,0.4,0.6,0.9,0.6,1.4
						c0,0.6-0.2,1.1-0.8,1.4c-0.5,0.3-1.1,0.3-1.5-0.2c-0.5-0.5-1-0.5-1.6-0.5c-2.2-0.1-4.2,0.6-6,1.9c-1.6,1.2-3,2.6-4.2,4.2
						c-2,2.8-3.7,5.8-5.1,8.9c-2.5,5.5-4.4,11.3-6.4,17c-0.9,2.7-1.8,5.3-2.6,8c-0.7,2.3-1,4.6-0.3,6.9c0.7,2.4,1.9,4.5,3.7,6.2
						c0.1,0.1,0.2,0.1,0.4,0.3c0.1-0.9,0.2-1.6,0.3-2.4c0.3-1.6,1-3.1,2.1-4.3c2.3-2.5,6-3.2,9.2-1.7c0.3,0.1,0.5,0.3,0.9,0.4
						c0.1-0.3,0.2-0.6,0.3-0.8c0.6-2.3,1.6-4.4,3-6.4c1.3-1.8,2.6-3.6,3.9-5.4c1.7-2.4,3-5.1,4-7.9c0.7-1.8,0.9-3.7,0.6-5.7
						c-0.2-1,0.3-1.7,1.2-1.9c0.8-0.2,1.6,0.4,1.8,1.3c0,0.1,0,0.2,0,0.2c0,0.7-0.1,1.4-0.2,2.1c0,0.3,0.1,0.6,0.3,0.7
						c-0.1,1.5-0.4,3-1,4.5c-1.2,3.1-2.6,6-4.6,8.7c-1.2,1.7-2.5,3.5-3.7,5.2c-0.6,0.8-1,1.8-1.5,2.7c-1.4,2.7-1.4,5.6-0.9,8.5
						c0.1,0.4,0.2,0.7,0.3,1.1c0.3,0.9,0,1.7-0.8,2c-0.8,0.3-1.6,0-2-0.8c-0.4-1-0.5-2-0.8-3.1c-0.1-0.4-0.1-0.9-0.1-1.3
						c-1,0-1.7-0.3-2-1.2c-0.1-0.2-0.4-0.3-0.7-0.4c-2.3-0.8-4.7,0.1-5.8,2.4c-0.8,1.7-0.9,3.4-0.5,5.2c0.4,2.1,1.6,3.9,3,5.4
						c0.6,0.7,1.2,1.3,1.9,1.9c1.1,1.1,2.5,1.7,4.1,1.9c0.4,0,0.8,0.1,1.1,0.2c0.2,0,0.4,0.1,0.5,0.2
						C78,156.7,78.2,157.5,78.8,157.5z"/>
					<path d="M88.4,89.6c-0.3,0.3-0.6,0.7-0.8,1.1c-0.4,0.7-1.5,0.1-1.1-0.6c0.2-0.4,0.5-0.8,0.8-1.1c0,0,0.1,0,0.1,0
						C87.8,89.1,88.1,89.3,88.4,89.6z"/>
					<path d="M81.9,157.7c-0.3-0.1-0.6-0.2-0.8-0.2c-0.1,0-0.1,0-0.2,0c0-0.5,0.2-0.9,0.5-1.2c1.3,0.2,2.3,0.8,1.7,2.3
						c-0.3,0.7-1.4,0.1-1.1-0.6C82.1,157.8,82.1,157.8,81.9,157.7z"/>
					<path d="M75.3,199.8c-0.1,0.1-0.2,0.1-0.3,0.2c0.2,0.8,0.6,1.3,1.2,1.7c0.6,0.4,1.1,0.8,1.7,1.2c2.8,1.9,5.8,3.2,8.9,4.5
						c5.2,2.2,10.6,3.6,16.3,4.3c3.2,0.4,6.5,0.4,9.7-0.2c5.3-1,9.5-3.7,13.2-7.4c0.4-0.4,0.8-0.8,1.2-1.3c-0.3-0.1-0.4-0.2-0.6-0.3
						c-2.1-0.8-3.8-2-5.5-3.4c-2.7-2.2-4.5-5-5-8.6c-0.2-1.3-0.3-2.5,0.8-3.6c-1.1-0.1-2-0.2-2.8-0.3c-8.2-1.3-15.3-4.8-21.1-10.7
						c-1.9-1.9-3.7-4.1-5.5-6.1c-0.2-0.2-0.3-0.4-0.4-0.7c-0.1,0.1-0.1,0.1-0.2,0.2c0,0.8,0,1.6,0,2.4c-0.1,5-1.1,9.8-2.3,14.6
						c-0.7,2.8-1.9,5.4-3.5,7.9C79.6,196.3,77.7,198.3,75.3,199.8z M83.1,158.6c0.7-1.5-0.4-2.1-1.7-2.3c0,0,0.1,0,0.1-0.1
						c0.6-0.4,1.4-0.4,2,0.2c0.3,0.3,0.5,0.7,0.7,1c0.3,0.8,0.6,1.5,0.9,2.3c0.6,1.7,1.4,3.2,2.4,4.7c3.2,4.6,6.8,8.8,11.2,12.2
						c5.2,4,11.1,6.2,17.6,6.9c3.9,0.4,7.6-0.5,10.9-2.5c8.2-5,12.9-12.4,14.6-21.8c0.5-2.9,0.7-5.9,0.7-8.8c0-4.1-0.1-8.2-0.1-12.4
						c0-1-0.2-2-0.3-3c0-0.4-0.1-0.8-0.1-1.2c0-0.9,0.6-1.5,1.4-1.6c0,0.7-0.1,1.5-0.3,2.2c-0.1,0.8,1.1,1.1,1.2,0.3
						c0.1-0.7,0.2-1.4,0.3-2.1c0.2,0.2,0.4,0.6,0.4,0.9c0.2,1.5,0.4,3.1,0.4,4.6c0.1,3.7,0.1,7.3,0.2,11c0,0.2,0,0.5,0,0.7
						c2-2.2,3.3-4.7,3.2-7.7c0-1.3,0.3-2.4,1.1-3.5c1.6-2.3,2.9-4.8,3.3-7.7c0.4-2.8,0.2-5.5-1.4-8c-0.5-0.8-0.6-1.7-0.2-2.7
						c1-2.5,1.2-5,0.8-7.6c-0.1-0.9-0.3-1.8-0.5-2.7c-0.6-2.9-2.1-5.3-4.3-7.2C142,98,136.2,93.3,130,89.1c-2.3-1.6-4.6-3.1-6.9-4.7
						c-2.9-2-6-3.2-9.5-3.6c-3.7-0.5-7.4-0.3-11,0.6c-2.1,0.5-4.1,1.3-5.8,2.5c-1.9,1.3-3.8,2.6-5.7,3.9c-0.3,0.2-0.5,0.5-0.7,0.7
						c-0.4,0.3-0.9,0.5-1.3,0.4c0.3-0.3,0.7-0.6,1-0.9c0.3-0.3,0.6-0.5,0.9-0.9c0.3-0.4,0.1-0.9-0.4-1c-0.3-0.1-0.6,0.1-0.7,0.4
						c0,0,0,0,0,0.1c-0.1,0.1-0.2,0.2-0.3,0.3c-0.3,0.3-0.7,0.6-1,1c-0.1,0.1-0.3,0.3-0.4,0.4c-0.3-0.5-0.3-1.1,0.1-1.6
						c0.3-0.4,0.7-0.8,1.1-1.2c1.6-1.2,3.4-2.2,5-3.4c3.6-2.7,7.7-3.8,12.1-4.3c3.6-0.4,7.1-0.1,10.6,0.7c2.4,0.5,4.6,1.4,6.6,2.8
						c5.4,3.7,10.7,7.4,16,11.3c3.3,2.4,6.3,5.2,9.5,7.8c3.8,3.1,5.7,7.3,6.3,12.1c0.4,3.1,0.3,6.1-0.7,9.1c-0.1,0.2,0,0.6,0.1,0.8
						c1.9,3.6,2,7.4,1.1,11.3c-0.6,2.7-1.9,5-3.3,7.2c-0.4,0.6-0.6,1.1-0.6,1.8c0,2.5-0.7,4.7-1.9,6.9c-0.4,0.6-0.7,1.2-1.1,1.8
						c-0.8,1.3-1.8,2.4-3.4,2.8c-0.2,2-0.4,4-0.7,6c-1.8,10.5-7.1,18.7-16.4,24.1c-2.8,1.7-5.9,2.6-9.3,2.8c-0.1,0-0.3,0-0.5,0.1
						c0.8,0.8,0.4,1.8,0.4,2.7c0.1,1.8,0.6,3.4,1.7,4.9c1.7,2.2,3.9,3.9,6.4,5c2.4,1,4.9,1.5,7.5,1.8c7.8,0.9,14.7,3.8,20.7,8.8
						c0.4,0.3,0.7,0.6,1.1,0.9c4.4,3.3,7,7.8,8.6,13c1.8,5.9,2.8,12,3.4,18.2c0.5,5.7,1,11.3,1.9,17c0.1,0.4,0.1,0.8,0,1.2
						c-0.1,0.3-0.2,0.6-0.4,0.8c-0.1-0.2-0.1-0.3-0.2-0.5c-0.4-0.7-1.5,0-1.1,0.6c0,0.1,0.1,0.1,0.1,0.2c-0.5-0.1-0.9-0.4-1.1-0.8
						c-0.1-0.2-0.2-0.5-0.2-0.8c-0.4-3.4-0.9-6.8-1.2-10.2c-0.6-5.4-0.9-10.7-1.8-16c-0.6-3.5-1.5-7-2.7-10.3
						c-1.3-3.6-3.3-6.7-6.3-9.1c-1.3-1.1-2.7-2.2-4-3.2c-4.4-3.2-9.3-5.2-14.6-6.3c-0.3-0.1-0.6-0.1-0.9-0.1c-0.1,0-0.1,0-0.3,0.1
						c0.1,0.3,0.1,0.6,0.2,0.8c1.8,6,2.6,12.3,3.1,18.5c0.4,5.3,0.9,10.6,1.1,15.9c0.3,6.7,0.3,13.4,0.4,20.2c0,0.3,0,0.7-0.1,1
						c-0.2,0.7-0.9,1.1-1.6,1c-0.7-0.1-1.2-0.6-1.3-1.3c0-0.3,0-0.5,0-0.8c-0.1-6.4-0.1-12.8-0.2-19.1c-0.1-5.7-0.5-11.3-1.1-16.9
						c-0.4-3.5-0.7-7.1-1.3-10.6c-0.6-3.1-1.5-6.1-2.2-9.1c-0.8-0.2-1.5-0.3-2.2-0.4c-4,4.9-8.8,8.4-14.8,10.2
						c-3.7,1.1-7.4,1.2-11.2,0.9c-6.4-0.5-12.5-2.1-18.4-4.6c-3.2-1.3-6.3-2.6-9.2-4.5c-0.7-0.4-1.3-0.9-2-1.3
						c-1.1-0.7-1.9-1.8-2.7-2.8c-0.2-0.2-0.3-0.6-0.3-0.8c0-0.1,0.1-0.2,0.1-0.3c0.6-0.3,1.2-0.5,1.9-0.8c0.7-0.3,0.5-1.4-0.3-1.2
						c-0.1-0.5-0.5-0.6-1-0.6c0.2-0.1,0.3-0.2,0.5-0.2c1-0.3,1.7-0.8,2.5-1.4c3.1-2.6,5-5.9,6.1-9.7c0.7-2.2,1.1-4.5,1.6-6.8
						c0.6-2.9,1-5.9,0.9-8.9c0-1.2-0.1-2.5-0.3-3.7c-0.1-0.8-0.1-1.5,0.4-2.1c-1-2.3-2-4.5-2.9-6.7c-0.1-0.2-0.2-0.5-0.2-0.7
						c0.1,0,0.1,0,0.2,0c0.3,0,0.6,0.1,0.8,0.2c0.2,0.1,0.2,0.1,0.1,0.3C81.7,158.7,82.8,159.4,83.1,158.6z"/>
					<path d="M79.1,157.5c-0.1,0-0.2,0-0.3,0c-0.6,0-0.8-0.7-0.5-1.1C78.8,156.6,79.1,157,79.1,157.5z"/>
					<path class="st6" d="M78.8,156.2c0.6,0,1.7,0,2.6,0.1c-0.4,0.3-0.5,0.7-0.5,1.2c-0.6,0-1.2-0.1-1.8-0.1
						c-0.1-0.4-0.3-0.8-0.8-1.1C78.5,156.3,78.6,156.2,78.8,156.2z"/>
					<path d="M73.7,199.5c-0.6,0.3-1.3,0.5-1.9,0.8c0.1-0.7-0.4-1.5,0.1-2.2c0.1-0.1,0.3-0.3,0.4-0.4c0.5-0.1,0.9,0.1,1,0.6
						C74.2,198.1,74.5,199.2,73.7,199.5z"/>
					<path class="st4" d="M72,198.1c-0.5,0.7,0,1.4-0.1,2.2c-1.1,0.5-2.2,1-3.4,1.5c-0.4,0.2-0.6-0.1-0.7-0.4
						c-0.1,0-0.2-0.1-0.3-0.2c-0.2-0.3-0.2-0.7,0.2-0.9c0.6-0.4,3.3-2.4,4.8-2.5C72.2,197.8,72.1,197.9,72,198.1z"/>
					<path d="M64.3,262.9c0.1,1-0.4,1.7-1.3,1.8c-0.8,0.1-1.6-0.4-1.7-1.4c-0.1-0.7-0.2-1.5-0.2-2.2c0-2.2,0-4.3-0.1-6.5
						c0-1.7-0.2-3.3-0.2-5c0,0,0,0,0,0c0-0.5,0-1.1,0-1.6c0-0.9,0.5-1.6,1.3-1.7c0.9-0.1,1.7,0.5,1.9,1.4c0,0.1,0.1,0.3,0,0.4
						c-0.6,2.2-0.1,4.5-0.1,6.7c0,2.2,0.1,4.4,0.2,6.6C64.2,261.9,64.2,262.4,64.3,262.9z"/>
					<path class="st4" d="M106.7,267.7c-16.5,0.1-33,0.1-49.4,0.1c-2.8,0-5.5,0-8.3,0.3c-2.3,0.3-4.7,0.6-7.1,0.7
						c-2.3,0.1-4.6,0.2-6.8-0.2c-1.2-0.2-2.5-0.6-3.4-1.5c0.1,0,0.2,0,0.2-0.1c0.4-0.1,0.6-0.4,0.8-0.7c0.5,0.4,1,0.6,1.6,0.8
						c4.4,1.3,9.5,0.3,13.9-0.2c6.6-0.8,13.3-0.4,19.9-0.4c6.5,0,12.9,0,19.4,0c10,0,20-0.1,30-0.2c8.2-0.1,16.5-0.1,24.7-0.1
						c3.2,0,6.4-0.1,9.7-0.2c4-0.2,8.1-0.5,12.1-1.4c1.2-0.3,5.9-1.2,4.8-3.2c0.1,0,0.3,0,0.4,0c0.3,0,0.6-0.2,0.8-0.3
						c0.5,1.3-0.2,2.5-1.4,3.2c-2.9,1.7-6.6,2-9.8,2.4c-3.9,0.5-7.8,0.7-11.7,0.8c-5.3,0.1-10.6,0.1-15.8,0.1
						C123.1,267.5,114.9,267.6,106.7,267.7z"/>
					<path d="M32,265.7c0.1,0.2,0.3,0.5,0.5,0.6c-0.1,0.3-0.4,0.5-0.8,0.7c-0.1,0-0.2,0.1-0.2,0.1c-0.2-0.2-0.4-0.5-0.6-0.8
						C30.6,265.7,31.6,265.1,32,265.7z"/>
					<path d="M32,265.7c-0.4-0.7-1.5-0.1-1.1,0.6c0.2,0.3,0.4,0.5,0.6,0.8c-0.7,0.2-1.4-0.3-1.8-1.2c-0.5-1.3-0.6-2.6-0.7-3.9
						c-0.1-5.5-0.2-10.9-0.2-16.4c0-4.4,0.4-8.8,1-13.2c0.8-5.4,2.5-10.5,5.5-15.1c2.4-3.7,5.6-6.6,9.3-8.9c4-2.4,8.3-4,12.6-5.4
						c2.7-0.9,5.4-1.7,8.2-2.5c0.8-0.2,1.4,0,1.8,0.6c0,0,0.1,0.1,0.1,0.2c0.2,0.3,0.4,0.5,0.5,0.7c0.1,0.2,0.4,0.4,0.4,0.6
						c0.2,1,0.9,1.8,1.4,2.6c3.2,5.2,5.7,10.8,8,16.5c3.6,8.9,6.7,18.1,8.9,27.5c0.8,3.6,1.3,7.2,1.8,10.9c0.2,1.2,0.3,2.3,0.5,3.5
						c0,0.2,0.1,0.4,0.1,0.6c0,0.7-0.5,1.3-1.1,1.4c-0.1,0-0.2,0-0.4,0c-0.5,0-1-0.3-1.3-0.8c-0.2-0.5-0.3-1.1-0.4-1.7
						c-0.3-2.6-0.6-5.2-0.9-7.9c-0.6-4.5-1.7-8.8-2.9-13.1c-2.7-9.6-6.2-18.8-10.4-27.8c-1.5-3.4-3.3-6.6-5.7-9.5
						c-0.2-0.2-0.3-0.5-0.6-0.9c-0.5,0.1-1,0.2-1.4,0.3c-4.3,1.4-8.7,2.7-12.9,4.5c-2.9,1.3-5.6,2.9-8.1,4.9
						c-4,3.4-6.7,7.6-8.4,12.6c-1.3,3.7-1.9,7.6-2.3,11.5c-0.7,7.8-0.5,15.6-0.2,23.3c0.1,1.4,0.4,2.8,0.6,4.2
						c0.1,0.5,0.1,1-0.1,1.4C32.4,266.2,32.2,266,32,265.7z"/>
				</g>
				<path class="st7" d="M121.5,165.3c3.2,0.2,5.3,1.7,6.7,4.3c0.2,0.3,0.2,0.8,0.2,1.2c0,0.7-0.4,1.2-1,1.4
					c-0.6,0.2-1.1,0.1-1.5-0.3c-0.3-0.3-0.6-0.8-0.8-1.2c-1.4-2-3-2.5-5.4-1.8c-2.2,0.7-4.1,1.9-5.8,3.4c-0.3,0.2-0.5,0.5-0.7,0.7
					c-0.5,0.4-1.2,0.4-1.7,0.1c-0.5-0.3-0.8-1-0.6-1.6c0.2-0.5,0.4-1.1,0.8-1.4c2.5-1.9,4.9-3.7,8-4.4
					C120.3,165.5,121,165.4,121.5,165.3z"/>
				<path class="st7" d="M101.7,132.7c0,0-0.5,0-0.9-0.2c-0.6-0.2-1-0.9-0.9-1.4c0.1-0.6,0.6-1.1,1.3-1.1c0.4,0,0.8,0,1.2,0
					c2.9-0.1,5.5-1,7.6-3.1c0.3-0.3,0.7-0.7,1.1-0.9c0.5-0.4,1.3-0.2,1.7,0.2c0.4,0.4,0.5,1.2,0.1,1.7c-0.8,1-1.8,1.9-2.9,2.6
					C107.5,131.9,104.9,132.6,101.7,132.7z"/>
				<path class="st7" d="M135.3,132.4c-2.3-0.3-4.4-1.5-6-3.5c-0.2-0.2-0.3-0.5-0.3-0.7c-0.2-0.5,0.1-1.1,0.5-1.5
					c0.4-0.3,1.1-0.3,1.5,0c0.3,0.2,0.4,0.5,0.7,0.7c0.7,0.6,1.4,1.2,2.1,1.6c0.9,0.5,1.9,0.7,2.9,0.2c0.3-0.1,0.6-0.2,1-0.3
					c0.6-0.1,1.1,0.3,1.3,0.8c0.2,0.5,0.1,1.2-0.3,1.5C137.9,132,136.9,132.5,135.3,132.4z"/>
				<path class="st7" d="M105,169c0.1-0.2,0.1-0.7,0.3-1.2c1.1-2.2,2.1-4.4,3.2-6.6c0.2-0.4,0.5-0.7,0.8-0.9
					c0.4-0.3,0.9-0.4,1.3-0.1c0.5,0.3,0.7,0.9,0.5,1.4c-0.1,0.3-0.2,0.5-0.4,0.7c-1.4,2.2-2.7,4.5-3.3,7c0,0.1-0.1,0.3-0.1,0.4
					c-0.3,0.7-0.8,1-1.4,0.9C105.3,170.5,105,170,105,169z"/>
				<path class="st7" d="M133.5,168.1c0,0.3,0,0.6-0.1,0.8c-0.2,0.5-0.6,0.8-1.1,0.8c-0.4,0-0.7-0.3-1-0.6c-0.1-0.1-0.2-0.4-0.2-0.5
					c-0.4-1.9-1-3.7-1.9-5.4c-0.1-0.2-0.2-0.5-0.2-0.8c0-0.5,0.3-1,0.7-1.1c0.5-0.2,0.9-0.1,1.3,0.2c0.2,0.2,0.4,0.4,0.5,0.7
					c0.7,1.6,1.3,3.3,1.9,4.9C133.4,167.5,133.4,167.8,133.5,168.1z"/>
				<path class="st7" d="M128.6,154.1c-0.1,0.2-0.2,0.7-0.5,0.8c-1.2,0.8-2.5,1.5-3.7,2.2c-0.2,0.1-0.5,0.2-0.8,0.3
					c-0.6,0.1-1.1-0.1-1.4-0.7c-0.3-0.5-0.2-1.1,0.3-1.5c0.2-0.1,0.3-0.2,0.5-0.3c1-0.6,2-1.2,3-1.8c0.4-0.2,0.7-0.4,1.1-0.4
					C127.8,152.6,128.5,153.2,128.6,154.1z"/>
				<path class="st7" d="M134.7,140.7c-0.1,0.3-0.2,0.9-0.5,1.4c-0.4,0.6-1,1-1.7,0.9c-0.7-0.1-1.3-0.5-1.5-1.2
					c-0.8-1.9,0.5-3,1.8-3.5c0.3-0.1,0.7,0,1,0.2C134.4,138.9,134.7,139.6,134.7,140.7z"/>
				<path class="st7" d="M108.7,140.7c0-0.2,0-0.5,0.1-0.8c0.1-0.3,0.3-0.6,0.6-0.8c0.8-0.5,2.1-0.2,2.6,0.5
					c0.8,0.9,0.7,2.8-0.2,3.6c-0.7,0.6-1.8,0.5-2.4-0.2C108.9,142.5,108.7,141.9,108.7,140.7z"/>
				<path class="st6" d="M115.6,211.4c1.9,2.9,2.9,6.1,2.6,9.5c-0.1,2.2-0.7,4.3-1.6,6.3c-0.2,0.4-0.4,0.9-0.5,1.3
					c-0.3,0.8-0.5,1.6-0.7,2.4c-0.7,2.3-1.5,4.6-2.2,6.9c-0.7,2.2-1.3,4.3-1.9,6.5c-0.1,0.4-0.3,0.7-0.5,1.1c-0.6-0.2-1-0.3-1.5-0.5
					c-3.1-1.1-6.1-2.5-9-4.1c-1.3-0.7-2.6-1.3-3.9-2c0.4-0.6,0.7-1.2,1-1.8c0.1-0.3,0.1-0.5-0.1-0.7c0.3-0.1,0.5-0.3,0.7-0.6
					c0.3-0.5,0.5-1,0.7-1.5c0.8-2.1,1.7-4.2,2.5-6.3c0.1-0.3,0.2-0.7,0.1-1c-0.3-1-0.5-2.1-1.3-3c-0.7-0.8-1.3-1.6-2-2.3
					c-2.2-2.1-4.4-4.2-6.5-6.3c-1.9-1.8-3.7-3.7-5.6-5.5c-1.9-1.8-2.9-4.1-3.5-6.6c-0.1-0.6-0.3-1.2-0.3-1.8
					c-0.3-3.4-0.7-6.8-1-10.2c-0.2-1.7,0.2-3.4,0.7-5.1c1.4-3.9,3-7.7,4.9-11.3c0.8-1.6,1.9-3,3.2-4.2c0.5-0.5,1.1-0.9,1.7-1.2
					c0.6-0.3,1.1-0.2,1.4,0.4c0.2,0.3,0.3,0.6,0.5,0.9c0.2,0.3,0.4,0.6,0.7,0.9c-3,3.6-4.9,7.7-6.9,11.8c-1.8,3.7-2.2,7.6-1.9,11.6
					c0.1,1,0.1,2.1,0.2,3.1c0,0.5,0.1,1,0.3,1.4c0.2,0.6,0.9,0.9,1.5,0.8c0.6-0.1,1.1-0.7,1.1-1.3c0-0.3-0.1-0.5-0.1-0.8
					c-0.1-2.3-0.3-4.7-0.3-7c0-2.1,0.5-4.2,1.4-6.2c1.4-2.8,2.8-5.5,4.3-8.2c0.6-1.1,1.5-2.2,2.3-3.2c0.6-0.7,1.3-1.4,2.3-1.8
					c0.2,0.3,0.3,0.4,0.5,0.6c0.1,0.1,0.1,0.2,0.2,0.2c-0.3,0.2-0.5,0.8,0,1c0.4,0.2,0.7,0.6,0.4,1c-0.2,0.2-0.2,0.4-0.2,0.6
					c-0.2,0.2-0.4,0.4-0.5,0.6c-2.1,2.7-3.6,5.7-4.8,8.8c-0.9,2.4-1.8,4.8-1.9,7.3c-0.1,2.2-0.1,4.4-0.1,6.6c0,0.7,0.2,1.4,0.4,2
					c0.3,0.7,1,1.1,1.6,0.9c0.7-0.2,1.1-0.8,1-1.6c-0.1-0.7-0.3-1.3-0.3-2c0-1.6,0-3.3,0-4.9c0-1.5,0.3-3,0.8-4.4
					c0.9-2.7,1.9-5.4,3.4-7.9c0.7-1.1,1.4-2.2,2.2-3.2c0.4-0.5,0.9-0.9,1.3-1.2c0.2-0.2,0.6-0.2,1-0.3c0.1,0.5,0.3,0.9,0.3,1.3
					c0.1,0.4,0.1,0.8,0.1,1.2c-1.5,1.6-2.5,3.4-3.4,5.4c-1,2.4-1.5,5-2,7.5c-0.5,2.4-0.9,4.7-0.8,7.1c0,0.6,0.1,1.2,0.3,1.8
					c0.2,0.7,0.8,1,1.4,0.9c0.7-0.1,1.1-0.7,1.1-1.5c0-0.3-0.1-0.5-0.1-0.8c0-1.4-0.1-2.8,0.1-4.1c0.3-2.9,0.9-5.7,1.9-8.4
					c0.5-1.4,1.2-2.8,1.9-4.1c0.5-0.8,1.2-1.5,1.9-2.1c0.3-0.2,0.7-0.3,1.1-0.4c0.4,1.1,0.2,2,0,2.9c-0.9,4.1-2,8.1-2.5,12.3
					c-0.3,2.5,0.3,4.6,2,6.4c1.2,1.3,2.5,2.6,3.7,3.9C112.4,207.1,114.1,209.1,115.6,211.4z"/>
				<path class="st4" d="M111.4,266.1c0,0.3,0,0.5,0.2,0.8l-0.2,0c-0.1-0.3-0.4-0.4-0.7-0.3c-9.1,3.6-20.5,2.4-29.2-1.8
					c0.2-0.4,0.4-0.8,0.6-1.2c2.4-6,4.8-12.1,7.2-18.1c0.4-1.1,0.8-2.2,1.3-3.3c0.4-0.9,0.8-1.7,1.5-2.4c0.8,0.4,1.6,0.7,2.4,1.1
					c0.5,0.2,0.9,0.4,1.3,0.7c5.6,3.2,11.5,5.8,17.6,7.9c0.6,0.2,1.2,0.4,1.7,0.7c0.3,0.1,0.6,0.3,1,0.5c-0.1,0.4-0.1,0.9-0.2,1.2
					c-1.2,3.4-2.3,6.9-3.5,10.3c-0.3,0.9-0.6,1.8-0.9,2.7C111.5,265.3,111.4,265.7,111.4,266.1z"/>
				<path d="M94.6,237.9c0.6,0.3,1.2,0.6,1.8,0.9c-0.3,0.5-0.7,0.9-1.1,1.4c-0.2,0.2-0.3,0.2-0.5,0.2c-0.4,0-0.7-0.5-0.5-1
					C94.5,238.9,94.6,238.4,94.6,237.9z"/>
				<path d="M80.5,265.8c-0.7-0.4-0.1-1.4,0.6-1.1c0.1,0.1,0.2,0.1,0.3,0.2c-0.1,0.1-0.2,0.3-0.3,0.4
					C81.1,265.5,80.8,265.7,80.5,265.8C80.6,265.8,80.6,265.8,80.5,265.8z"/>
				<path d="M96,236.2C96,236.2,96,236.2,96,236.2L96,236.2c0-0.1,0-0.1,0-0.2c0-0.2-0.2-0.4-0.4-0.4c-0.1-0.2-0.1-0.5,0-0.8
					c0.1-0.5,0.3-0.9,0.5-1.4c0.8-2.2,1.6-4.4,2.4-6.5c-0.5-1.2-1.1-2.1-2-3c-1.4-1.5-2.9-3-4.4-4.4c-2.2-2.1-4.5-4.2-6.8-6.3
					c-0.4-0.4-0.7-0.8-1.2-1.2c-2.9-2.6-4.2-5.9-4.7-9.6c-0.5-3.6-0.8-7.2-1.2-10.8c-0.2-2.2,0.2-4.2,0.9-6.3c1.5-4,3.1-7.9,5-11.7
					c1.2-2.4,2.8-4.5,5.1-6.1c0.7-0.5,1.5-0.9,2.4-1.1c1.6-0.4,2.8,0.3,3.6,1.7c0.3,0.5,0.5,1,0.8,1.5c0.6-0.2,1.1-0.5,1.6-0.6
					c1.8-0.5,3.9,1,3.9,2.9c0,0.5-0.4,1.1-0.8,1.3c-0.1,0-0.2,0.1-0.2,0.1c-0.2-0.3-0.5-0.5-0.8-0.7c-0.2-0.1-0.5-0.1-0.6,0
					c-0.1-0.1-0.1-0.2-0.2-0.2c-0.1-0.2-0.2-0.3-0.5-0.6c-1.1,0.4-1.8,1.1-2.3,1.8c-0.8,1-1.7,2-2.3,3.2c-1.5,2.7-2.9,5.5-4.3,8.2
					c-1,1.9-1.4,4-1.4,6.2c0,2.3,0.2,4.7,0.3,7c0,0.3,0.1,0.5,0.1,0.8c0,0.7-0.5,1.2-1.1,1.3c-0.6,0.1-1.3-0.2-1.5-0.8
					c-0.2-0.4-0.2-0.9-0.3-1.4c-0.1-1-0.2-2-0.2-3.1c-0.3-4,0.1-7.9,1.9-11.6c2-4.1,3.9-8.2,6.9-11.8c-0.2-0.3-0.5-0.6-0.7-0.9
					c-0.2-0.3-0.3-0.6-0.5-0.9c-0.3-0.6-0.8-0.7-1.4-0.4c-0.6,0.4-1.2,0.7-1.7,1.2c-1.3,1.2-2.4,2.6-3.2,4.2
					c-1.9,3.7-3.5,7.4-4.9,11.3c-0.6,1.6-0.9,3.3-0.7,5.1c0.3,3.4,0.6,6.8,1,10.2c0.1,0.6,0.2,1.2,0.3,1.8c0.6,2.5,1.5,4.8,3.5,6.6
					c1.9,1.8,3.7,3.7,5.6,5.5c2.2,2.1,4.4,4.1,6.5,6.3c0.7,0.7,1.3,1.6,2,2.3c0.8,0.9,1,1.9,1.3,3c0.1,0.3,0,0.7-0.1,1
					c-0.8,2.1-1.6,4.2-2.5,6.3c-0.2,0.5-0.4,1-0.7,1.5c-0.2,0.3-0.4,0.5-0.7,0.6c-0.2-0.3-0.8-0.4-1,0c0,0-0.1,0-0.1,0
					C96.1,236.3,96.1,236.2,96,236.2C96,236.2,96,236.2,96,236.2z"/>
				<path d="M96,236.2C96,236.2,96,236.2,96,236.2L96,236.2z"/>
				<polygon points="96,236.2 96,236.2 96,236.2 96,236.2 				"/>
				<path d="M99.4,173c-0.1-0.1-0.2-0.2-0.3-0.4c0.2-0.1,0.4-0.2,0.6,0c0.3,0.2,0.6,0.4,0.8,0.7C100.1,173.4,99.7,173.3,99.4,173z"
					/>
				<path d="M100.7,173.9c0.2,0.6,0,1.2-0.4,1.7c-0.4,0.4-0.9,0.1-1-0.3C99.7,174.7,100.2,174.3,100.7,173.9z"/>
				<path class="st6" d="M99.4,174.7c0.3-0.4,0-0.8-0.4-1c-0.5-0.3-0.4-0.8,0-1c0.1,0.1,0.2,0.3,0.3,0.4c0.3,0.3,0.7,0.4,1.1,0.3
					c0.1,0.2,0.2,0.4,0.3,0.6c-0.5,0.4-1,0.9-1.5,1.4C99.2,175,99.3,174.8,99.4,174.7z"/>
				<path d="M82.1,263.6c-0.2,0.4-0.4,0.8-0.6,1.2c-0.1-0.1-0.2-0.1-0.3-0.2c-0.7-0.4-1.4,0.7-0.6,1.1c0,0,0,0,0.1,0
					c-0.4,0.2-0.8,0.1-1.2-0.1c-0.6-0.4-0.8-1-0.5-1.8c0.7-1.7,1.4-3.4,2.2-5.1c2.4-5.6,4.7-11.1,6.7-16.8c0.5-1.5,1.4-3,2.1-4.4
					c0.3-0.6,0.9-0.9,1.6-0.8c0.7,0.1,1.5,0.3,2.1,0.6c0.3,0.2,0.6,0.3,0.9,0.5c0,0.5-0.1,1-0.3,1.5c-0.2,0.4,0.1,0.9,0.5,1
					l-0.3,0.6c-0.8-0.4-1.6-0.7-2.4-1.1c-0.7,0.7-1.2,1.5-1.5,2.4c-0.4,1.1-0.8,2.2-1.3,3.3C86.9,251.5,84.5,257.6,82.1,263.6z"/>
				<path d="M94.8,240.3c0.2,0,0.3,0,0.5-0.2c0.4-0.4,0.8-0.9,1.1-1.4c1.3,0.6,2.6,1.3,3.9,2c2.9,1.6,5.9,3,9,4.1
					c0.4,0.2,0.9,0.3,1.5,0.5c0.2-0.4,0.4-0.7,0.5-1.1c0.7-2.2,1.3-4.3,1.9-6.5c0.7-2.3,1.5-4.6,2.2-6.9c0.3-0.8,0.5-1.6,0.7-2.4
					c0.1-0.4,0.3-0.9,0.5-1.3c0.9-2,1.5-4.1,1.6-6.3c0.2-3.5-0.7-6.6-2.6-9.5c-1.5-2.2-3.2-4.3-5-6.2c-1.2-1.3-2.5-2.6-3.7-3.9
					c-1.7-1.8-2.3-3.9-2-6.4c0.5-4.2,1.6-8.2,2.5-12.3c0.2-0.9,0.5-1.9,0-2.9c-0.4,0.1-0.9,0.2-1.1,0.4c-0.7,0.7-1.4,1.3-1.9,2.1
					c-0.7,1.3-1.4,2.7-1.9,4.1c-0.9,2.7-1.5,5.6-1.9,8.4c-0.2,1.4-0.1,2.7-0.1,4.1c0,0.3,0.1,0.5,0.1,0.8c0,0.8-0.4,1.4-1.1,1.5
					c-0.6,0.1-1.2-0.3-1.4-0.9c-0.2-0.6-0.3-1.2-0.3-1.8c-0.1-2.4,0.3-4.8,0.8-7.1c0.5-2.6,1-5.1,2-7.5c0.8-2,1.8-3.8,3.4-5.4
					c0-0.4,0-0.8-0.1-1.2c-0.1-0.4-0.2-0.8-0.3-1.3c-0.4,0.1-0.8,0.1-1,0.3c-0.5,0.4-1,0.8-1.3,1.2c-0.8,1-1.5,2.1-2.2,3.2
					c-1.5,2.5-2.5,5.2-3.4,7.9c-0.5,1.4-0.8,2.9-0.8,4.4c0,1.6-0.1,3.3,0,4.9c0,0.7,0.2,1.3,0.3,2c0.1,0.8-0.3,1.4-1,1.6
					c-0.7,0.2-1.4-0.1-1.6-0.9c-0.2-0.6-0.4-1.3-0.4-2c0-2.2,0-4.4,0.1-6.6c0.1-2.6,1-5,1.9-7.3c1.2-3.1,2.7-6.2,4.8-8.8
					c0.2-0.2,0.4-0.4,0.5-0.6c0.1,0.4,0.7,0.8,1,0.3c0.5-0.5,0.6-1.1,0.4-1.7c0.1-0.1,0.1-0.1,0.2-0.2c0.7-0.6,1.6-0.8,2.5-0.8
					c1.3,0.1,2.2,0.7,2.7,1.9c0.2,0.6,0.4,1.2,0.5,1.8c0.5,0.1,1,0.2,1.4,0.3c1.5,0.4,2.2,1.4,2.3,2.8c0,0.9-0.1,1.8-0.2,2.6
					c-0.6,3-1.3,5.9-1.9,8.8c-0.3,1.5-0.4,3-0.6,4.5c-0.2,1.3,0.2,2.4,1.1,3.4c1.1,1.2,2.2,2.4,3.4,3.6c1.9,2,3.8,4.2,5.4,6.5
					c2.4,3.4,3.7,7.2,3.6,11.4c-0.1,2.6-0.8,5-1.6,7.4c-1,2.9-2.1,5.8-3.1,8.7c-0.9,2.9-1.7,5.8-2.5,8.7c-0.1,0.3-0.1,0.5-0.2,0.9
					c0.4,0.2,0.8,0.5,1.2,0.7c1.1,0.5,2.3,0.9,3.4,1.4c1.1,0.5,1.3,1.2,1.1,2.4c-0.1,0.4-0.2,0.8-0.4,1.2c-1.3,3.8-2.6,7.5-3.9,11.3
					c-0.3,0.8-0.5,1.6-0.7,2.4c-0.1,0.5-0.3,0.9-0.5,1.4c-0.3,0.6-1,0.9-1.6,0.7c-0.3-0.1-0.6-0.4-0.8-0.7c-0.1-0.2-0.2-0.5-0.2-0.8
					c0-0.4,0.1-0.8,0.2-1.2c0.3-0.9,0.6-1.8,0.9-2.7c1.2-3.4,2.3-6.9,3.5-10.3c0.1-0.4,0.1-0.8,0.2-1.2c-0.4-0.2-0.6-0.4-1-0.5
					c-0.6-0.2-1.1-0.5-1.7-0.7c-6.1-2.1-12-4.7-17.6-7.9c-0.4-0.2-0.9-0.5-1.3-0.7L94.8,240.3z"/>
				<path class="st6" d="M96,236.2C96,236.2,96,236.2,96,236.2C96,236.2,96,236.2,96,236.2c0,0.2,0,0.4,0,0.5c0,0.1,0,0.2-0.1,0.3
					c0,0.1,0,0.1,0,0.2c0.1-0.3,0.3-0.5,0.4-0.8c0,0,0,0,0,0c0.3,0.1,0.7,0.1,1,0c0.1,0.2,0.2,0.4,0.1,0.7c-0.3,0.6-0.6,1.2-1,1.8
					c-0.6-0.3-1.2-0.6-1.8-0.9c0-0.7,0-1.3,0.2-1.9c0.1-0.4,0.5-0.5,0.8-0.4C95.6,235.8,95.8,236,96,236.2L96,236.2z"/>
				<path class="st4" d="M81.5,264.8c8.8,4.2,20.1,5.4,29.2,1.8c0.3-0.1,0.6,0,0.7,0.3c0.1,0.3,0,0.8-0.4,0.9
					c-9.6,3.7-21.4,2.4-30.5-2c0.2-0.1,0.5-0.3,0.6-0.5C81.3,265.1,81.4,265,81.5,264.8z"/>
				<path d="M96,236c0,0.1,0,0.1,0,0.2c-0.2-0.2-0.4-0.4-0.4-0.6C95.8,235.6,95.9,235.7,96,236z"/>
				<path d="M96.3,236.4c0.2-0.5,0.8-0.4,1,0C97,236.5,96.7,236.5,96.3,236.4z"/>
			</g>
			<g>
				<g>
					<path class="st4" d="M363.4,177.9c0.4,0.2,0.8,0.3,1.2,0.5l-0.1,0.2c-0.2-0.1-0.4-0.1-0.7-0.1c-0.5,0.1-1.1,0.3-1.5,0.6
						c-0.7,0.5-1.3,1.1-1.8,1.8c-2.2,2.5-4,5.3-5.4,8.3c-3,6.3-5,13-6.4,19.8c-1,4.8-1.6,9.7-2.1,14.7c-0.6,6.2-1,12.4-1,20.3
						c0.2,2.7,0.4,7,0.7,11.2c0,0.6,0.3,1.3,0.6,1.8c0.2,0.4,0.5,0.6,0.9,0.7c0.7,0.9,0.9,2.3,0.9,3.5c0,0.3,0,0.6,0,0.9
						c-4,0.5-8,0.7-12,0.9c-4,0.2-8,0.5-12,0.6c-8,0.2-15.9,0-23.9-0.2c-8.1-0.2-16.2-0.5-24.3-0.7c-8-0.2-16.1-0.1-24.1-0.8
						c-4.1-0.4-8-1.4-12-2.1c-3.3-0.6-6.6-1.1-9.9-0.5c0-1,0-2,0.1-3c0.4-0.2,0.7-0.6,0.8-1.1c0.1-0.7,0.1-1.4,0.1-2.2
						c0-12.3,0-24.6,0-36.8c0-7.2,0.7-14.3,1.4-21.5c0.3-2.7,0.5-5.4,0.7-8.1c0.1-1.6-0.8-2.2-2.3-1.8c0,0,0,0,0,0
						c0.6-0.4,1.2-0.9,1.9-1.2c3.2-1.6,6.6-2.9,10-4.1c3.1-1.1,6.2-2.3,9.3-3.5c0.8-0.3,1.5-0.7,2.2-1.1c0.2-0.2,0.4-0.3,0.5-0.6
						c0.1,0.1,0.3,0.1,0.4,0c0.9-0.3,1.9-0.7,2.8-1.1c-0.6,1.5-1.1,2.9-1.6,4.4c-0.4,1.2-0.4,2.3,0.1,3.4c0.4,1,0.8,2.1,1.2,3.2
						c1.5,3.7,2.7,7.5,3.6,11.4c0.5,2.2,2.2,2.8,4,1.5c0.8-0.6,1.6-1.3,2.4-1.9c0.3-0.2,0.5-0.4,0.8-0.7c0.2,0.4,0.4,0.7,0.5,1
						c2,3.7,4.1,7.5,6.6,10.9c0.7,0.9,1.4,1.8,2.2,2.7c1,1.1,2.1,1.2,3.3,0.3c0.3-0.2,0.5-0.4,0.7-0.6c1-1,2.1-1.9,3.1-2.9
						c3.7-3.6,7.4-7.3,11.4-10.5c0.3-0.2,0.5-0.4,0.8-0.6c0.3,0.3,0.5,0.6,0.8,0.9c1.3,1.7,2.6,3.4,4,5c1.2,1.3,2.4,1.4,3.8,0.2
						c0.6-0.5,1.1-1,1.6-1.6c0.6-0.7,1.2-1.4,1.8-2.1c4.3-4.9,8.6-9.9,12.9-14.8c2.9-3.2,5.7-6.4,8.3-9.9c0.2-0.3,0.5-0.5,0.7-0.7
						c0.9-0.5,1.2-1.2,0.8-2.2c-0.3-0.8-0.7-1.5-1.2-2.1c-0.2-0.3-0.4-0.6-0.6-0.8c1.1,0.5,2.2,0.9,3.4,1.3c0.3,0.3,0.7,0.6,1.3,0.7
						c0.2,0.1,0.5,0.1,0.7,0.1c1.1,0.3,2.3,0.5,3.4,0.8c2.2,0.7,4.4,1.4,6.6,2.1C351.6,173.6,357.6,175.5,363.4,177.9z"/>
					<path class="st6" d="M364.5,178.4c2.1,0.9,4.2,1.9,6.2,3.1c2,1.2,3.6,2.7,4.9,4.6c2.9,4.1,5.1,8.6,6.8,13.2
						c2,5.3,2.9,10.9,3.2,16.6c0.3,6.1,0.5,12.3,0.6,18.4c0.1,7.3,0.2,14.6,0.2,21.9c-0.3,0.2-0.4,0.8,0,1c0,0,0,0,0,0
						c0.1,0.6,0.4,1,0.9,1.2c0.2,0.8,0,1.7-0.3,2.4c-12.5-1.3-25.2,1.8-37.7-0.2c-0.1-1.1-0.3-2.2-0.8-3.1c0.6-0.4,0.8-1.2,0.6-1.9
						c-0.2-0.5-0.3-1-0.3-1.5c-0.1-1.2-0.2-2.5-0.3-3.7c-0.3-4.4-0.6-8.8-0.4-13.3c0.2-4.4,0.5-8.8,0.9-13.2
						c0.4-4.5,0.9-9.1,1.9-13.5c1.3-6.2,2.9-12.3,5.5-18.2c1.5-3.3,3.3-6.5,5.7-9.2c0.6-0.7,1.2-1.3,2-1.7c0.7-0.3,1-1,0.8-1.7
						c-0.1-0.5-0.5-0.9-0.9-1.1L364.5,178.4z"/>
					<path class="st6" d="M231.1,184.8c-0.5,0.5-0.7,1-0.7,1.7c0.1,3.5-0.5,7-0.7,10.5c-0.4,5.3-1,10.7-1.1,16
						c-0.2,13.8-0.2,27.5-0.3,41.3c0,0.3,0,0.6,0,0.8c0.1,0.5,0.3,0.9,0.8,1.2c0,0,0.1,0,0.1,0.1c-0.1,0.7-0.1,1.3-0.1,2
						c-4.6-1.9-9.9-0.9-14.7,0.2c0-0.3,0-0.6,0-0.9c-0.1-0.5-0.3-0.9-0.5-1.4c0.3-0.2,0.4-0.5,0.5-0.8c0.1-0.4,0.1-0.8,0.1-1.2
						c0.2-5.9,0.3-11.7,0.7-17.6c0.5-7.3,1.2-14.6,2-21.8c0.7-7,2.5-13.7,5.3-20.1c1.2-2.7,2.9-5.1,4.9-7.2
						C228.4,186.3,229.6,185.4,231.1,184.8L231.1,184.8z"/>
					<path class="st6" d="M320.6,158.3c3.3,3.7,5.6,7.8,8.3,11.5c-2.6,3.9-5.6,7.3-8.7,10.7c-1.9,2.1-3.8,4.2-5.6,6.3
						c-3,3.4-5.9,6.8-8.8,10.2c-0.4,0.5-0.8,0.9-1.3,1.5c-0.3-0.3-0.4-0.5-0.6-0.6c-3.1-3.6-6.2-7.3-9.2-10.9
						c-2.1-2.5-4.1-5.2-6.1-7.8c-0.1-0.1-0.2-0.3-0.3-0.4c-0.6-0.6-1.4-0.7-2-0.3c-0.6,0.5-0.8,1.3-0.3,2c0.1,0.2,0.3,0.4,0.5,0.7
						c0.7,0.9,1.5,1.9,2.3,2.8c2,2.4,4,4.7,5.9,7.1c0.3,0.4,0.7,0.8,1,1.2c-5.2,4.8-10.3,9.6-15.3,14.3c-0.2-0.1-0.3-0.2-0.3-0.2
						c-0.3-0.3-0.6-0.6-0.8-0.9c-2.9-3.6-5.2-7.7-7.3-11.8c-0.1-0.2-0.2-0.4-0.2-0.6c-0.3-0.5-0.2-0.9,0.3-1.4
						c3.2-2.9,6.4-5.8,9.6-8.7c0.2-0.1,0.3-0.3,0.5-0.4c0.7-0.7,0.8-1.6,0.3-2.2c-0.5-0.7-1.4-0.7-2.2-0.1c-0.2,0.2-0.5,0.4-0.7,0.6
						c-1.6,1.5-3.3,3-4.9,4.4c-2.8,2.5-5.5,5.1-8.3,7.6c-0.5,0.5-1,1-1.7,1.3c-0.1-0.3-0.2-0.6-0.3-0.8c-0.9-2.7-1.7-5.4-2.6-8.1
						c-0.6-1.8-1.3-3.5-1.9-5.2c-0.2-0.6-0.3-1.1-0.1-1.7c0.4-1.2,0.8-2.5,1.2-3.7c0.3-0.7,0.6-1.4,0.9-2.1c1.2-2.9,2.4-5.8,3.6-8.8
						c0,0,0-0.1,0-0.1c0.9,0.3,1.8,0.7,2.6,1.2c0,0.4,0.1,0.7,0.4,1.1c0.1,0.2,0.3,0.3,0.4,0.4c1.8,1.4,3.5,2.8,5.4,4.2
						c2.6,1.9,5.2,3.8,7.8,5.8c0.8,0.6,1.7,0.8,2.7,0.4c1-0.4,1.9-0.7,2.9-1.2c7.3-3.4,14.7-6.9,22-10.3c3.2-1.5,6.4-3.1,9.5-4.6
						C319.7,160.3,320.6,159.8,320.6,158.3z"/>
					<path class="st6" d="M316.9,158.3c-9.6,4.9-19.3,9.5-29.1,14c-1.2,0.5-2.4,1-3.6,1.4c-0.4,0.1-0.7,0.2-1-0.1
						c-2.2-1.6-4.4-3.1-6.5-4.7c-0.2-0.1-0.4-0.3-0.5-0.4c0-0.6,0.1-1.2,0-1.7c-0.2-1.7-0.5-3.4-0.8-5.1c-0.1-0.4-0.1-0.7-0.1-1.1
						c2.1,0.4,4,0.3,5.9,0.2c1.1-0.1,2.2-0.3,3.4-0.4c3.8-0.3,7.5-0.6,11.3-0.9c2.7-0.2,5-1.1,7.1-2.8c2.6-2.1,5.1-4.4,7.3-6.9
						c1.7-2,3.4-4,5.1-6c0.2-0.2,0.4-0.3,0.6-0.5c0,0.1,0.1,0.2,0.1,0.2c0,4.1,0,8.2-0.6,12.3c-0.1,0.9,0.2,1.7,1,1.9
						c0.7,0.2,1.3-0.1,1.7-0.7c-0.1,0.2,0,0.5,0.1,0.7C317.8,157.9,317.3,158.1,316.9,158.3z"/>
					<path class="st6" d="M316.4,62.6c0.4,0.2,0.8,0.3,1.2,0.2c0.2,0.2,0.4,0.5,0.5,0.7c-0.1,0-0.2,0.1-0.3,0.1
						c-0.8,0.4-1.1,1.1-0.9,1.9c0.2,0.7,0.9,1.1,1.8,1c0.3,0,0.5-0.1,0.8-0.1c1.8-0.1,3.4,0.3,4.9,1.3c2.1,1.4,3.6,3.2,4.8,5.4
						c2.2,4.3,2.8,8.8,2,13.5c-0.6,3.6-1.7,7.1-2.7,10.5c-0.1,0.3-0.2,0.6-0.4,0.9c-4.6-1.1-7.7,1-9.9,4.7c-0.4-0.9-0.7-1.8-1.1-2.7
						c-0.1-0.3-0.3-0.7-0.6-1c-0.5-0.6-1.2-0.7-1.8-0.4c-0.6,0.3-1,1-0.8,1.7c0.1,0.3,0.2,0.6,0.4,0.8c0.7,1.1,1.1,2.4,1,3.7
						c0,2.1-0.1,4.1-0.1,6.2c0,0.4-0.1,0.8,0,1.2c0.1,0.7,0.7,1.2,1.3,1.2c0.7,0,1.3-0.3,1.5-1c0.1-0.3,0.1-0.6,0.1-0.9
						c0-2.2,0-4.4,0-6.6c0-0.3,0-0.6,0-0.9c0.3,0.2,0.4,0.3,0.5,0.4c0.9,0.5,2,0.2,2.3-0.8c0.5-1.3,1.5-1.9,2.6-2.5
						c1.3-0.8,2.7-0.7,4,0.1c1.2,0.8,2.1,1.8,2.6,3.2c0.5,1.3,0.7,2.6,0.7,3.9c0,4.1-1.3,7.7-3.7,11c-2.1,2.8-4.8,4.1-8.3,3.4
						c-1.2-0.2-1.9,0.4-2,1.6c0,0.7,0,1.4-0.1,2.1c-0.5,3.5-1.1,6.9-1.6,10.4c-0.3,1.9-1.1,3.6-2.4,5c-1.7,1.9-3.3,3.9-5,5.9
						c-2.4,2.7-5,5.1-7.9,7.2c-0.9,0.6-1.8,1.1-2.9,1.2c-1.4,0.2-2.7,0.3-4.1,0.4c-3.9,0.3-7.8,0.7-11.7,1c-1.8,0.1-3.6,0.3-5.4-0.1
						c-0.8-0.2-1.5-0.2-2.2,0.1c-0.1,0-0.3,0.1-0.4,0.1c-0.8-0.7-1.5-1.3-2.3-2c-0.3-0.3-0.6-0.2-0.8,0c-0.1-0.2-0.3-0.4-0.4-0.6
						c-0.6-0.8-1.3-1.6-2-2.3c-3-3.4-5.6-7-8-10.8c-1.3-2-2.2-4.2-2.7-6.6c-1.1-4.9-1.6-9.8-1.8-14.8c-0.2-5.6-0.1-11.3-0.2-16.9
						c-0.1-5.6,0.8-11,1.9-16.4c0.7-3.4,2-6.6,3.2-9.9c0.1-0.3,0.2-0.5,0.3-0.8c0.1-0.5,0-1-0.4-1.4c0.4-1.5,0.3-3.2,0.1-4.8
						c0.3-0.3,0.4-0.8,0.3-1.3c-0.1-0.4-0.3-0.7-0.4-1c-0.2-0.5-0.4-0.9-0.5-1.4c-0.5-2.2,0.1-4.2,1.3-6c2.8-4.3,7.2-5.8,12-6.4
						c0.7-0.1,1.2,0.2,1.6,0.9c0.6,1.2,1.6,1.7,2.9,1.6c0.4,0,0.8-0.1,1.2-0.2c2.8-0.5,5.5-1.2,8.3-1.4c6.5-0.6,12.9-0.2,19.3,0.9
						c4,0.7,7.2,2.5,9.5,5.9c0.1,0.1,0.2,0.3,0.3,0.4C316,62.4,316.2,62.5,316.4,62.6z M323.4,96.3c0.3-0.6,0.3-1.2-0.2-1.7
						c-0.2-0.3-0.5-0.4-0.8-0.6c-1.5-1-2.9-2.1-4.4-3.1c-2.5-1.7-4.5-3.9-6.2-6.4c-0.8-1.1-1.7-2.1-2.6-3.2
						c-0.4-0.5-0.9-0.8-1.5-0.8c-0.6,0-1.2,0.4-1.5,0.9c-0.3,0.6-0.1,1.3,0.5,1.7c1.2,0.9,2,2,2.8,3.2c1.2,1.7,2.4,3.4,4.1,4.7
						c2.4,1.9,4.8,3.6,7.3,5.4c0.3,0.2,0.6,0.3,0.9,0.4C322.4,97.1,323,96.8,323.4,96.3z M319.9,81.6c0.8-0.3,1.1-1.1,0.8-2
						c-0.1-0.4-0.3-0.8-0.5-1.1c-2.4-3.9-5.4-7.2-9.6-9.2c-2.2-1-4.4-1.9-6.6-2.8c-3.2-1.3-6.6-1.9-10.1-1.4
						c-2.4,0.3-4.9,0.6-7.2,1.5c-0.8,0.3-1.6,0.7-2.3,1.2c-0.7,0.4-0.8,1.2-0.5,1.8c0.3,0.6,1,1,1.7,0.8c0.3-0.1,0.6-0.2,0.8-0.4
						c0.7-0.3,1.4-0.7,2.1-1c2.4-0.8,4.9-0.9,7.8-1.1c0.6,0.1,1.6,0.1,2.6,0.3c3.4,0.7,6.5,2.1,9.6,3.6c2.9,1.3,5.2,3.3,7.1,5.8
						c0.8,1.1,1.5,2.3,2.3,3.4C318.5,81.6,319.2,81.9,319.9,81.6z M292.2,59.6c0.1-0.8-0.4-1.5-1.4-1.7c-0.1,0-0.3,0-0.4,0
						c-2-0.3-3.9-0.1-5.8,0.2c-4.3,0.7-8.3,2.3-11.7,4.9c-1.3,1-2.4,2.1-3.3,3.5c-0.5,0.9-0.9,1.9-1.2,2.8c-0.2,0.7,0.1,1.3,0.7,1.6
						c0.6,0.3,1.2,0.3,1.7-0.1c0.3-0.3,0.6-0.8,0.7-1.2c0.1-0.8,0.5-1.5,1-2.1c1.8-2.3,4.1-3.8,6.8-4.9c3.6-1.5,7.3-2.3,11.5-1.7
						C291.4,60.9,292.1,60.4,292.2,59.6z"/>
					<path d="M386.7,257.2c0.5,0.3,0.8,0.7,0.9,1.2C387.1,258.3,386.8,257.8,386.7,257.2z"/>
					<path d="M387.3,256.1c1,0.6,1.4,1.4,1.5,2.3c-0.2,0.1-0.4,0.1-0.6,0.1c-0.2,0-0.5,0-0.7-0.1c-0.1-0.5-0.4-0.9-0.9-1.2
						c0-0.1,0-0.1,0-0.2c0-0.2,0-0.4,0-0.6c0-0.1,0-0.2,0-0.2C386.8,256,387.1,256,387.3,256.1z"/>
					<path class="st6" d="M386.7,257.2c-0.4-0.3-0.3-0.8,0-1c0,0.1,0,0.2,0,0.2c0,0.2,0,0.4,0,0.6
						C386.7,257.1,386.7,257.2,386.7,257.2C386.7,257.2,386.7,257.2,386.7,257.2z"/>
					<path class="st6" d="M349.6,260.6c12.5,2,25.1-1.1,37.7,0.2c0.2-0.8,0.4-1.7,0.3-2.4c0.2,0.1,0.4,0.1,0.7,0.1
						c0.2,0,0.4-0.1,0.6-0.1c0.1,1.1-0.1,2.2-0.5,3.3c-0.1,0.2-0.3,0.5-0.6,0.5c-12.7-1.5-25.4,1.7-38-0.3
						C349.7,261.5,349.7,261.1,349.6,260.6z"/>
					<path class="st6" d="M349.7,261.9c-0.3,0-0.5-0.1-0.8-0.1c-0.3-0.1-0.5-0.3-0.5-0.5c0-0.4,0.3-0.8,0.8-0.7c0.1,0,0.3,0,0.4,0.1
						C349.7,261.1,349.7,261.5,349.7,261.9z"/>
					<path class="st4" d="M348.4,261.3c0-1.2-0.2-2.6-0.9-3.5c0.4,0.1,0.8,0.1,1.2-0.1c0,0,0.1-0.1,0.1-0.1c0.5,0.9,0.7,2,0.8,3.1
						c-0.1,0-0.3,0-0.4-0.1C348.8,260.5,348.5,260.9,348.4,261.3L348.4,261.3z"/>
					<path d="M348.9,257.6c0,0-0.1,0.1-0.1,0.1c-0.4,0.2-0.8,0.2-1.2,0.1c-0.2-0.2-0.4-0.4-0.6-0.6c-0.7-0.4-0.1-1.5,0.6-1.1
						C348.1,256.5,348.6,257,348.9,257.6z"/>
					<path d="M347.5,256.1c-0.7-0.4-1.3,0.7-0.6,1.1c0.3,0.1,0.5,0.3,0.6,0.6c-0.3-0.1-0.7-0.4-0.9-0.7c-0.3-0.6-0.5-1.2-0.6-1.8
						c-0.3-4.3-0.5-8.6-0.7-11.2c-0.1-7.9,0.3-14.1,1-20.3c0.5-4.9,1.1-9.8,2.1-14.7c1.4-6.8,3.4-13.5,6.4-19.8
						c1.4-3,3.2-5.8,5.4-8.3c0.6-0.6,1.2-1.3,1.8-1.8c0.4-0.3,1-0.5,1.5-0.6c0.2,0,0.5,0,0.7,0.1c0.5,0.2,0.8,0.6,0.9,1.1
						c0.2,0.7-0.1,1.4-0.8,1.7c-0.9,0.4-1.5,1-2,1.7c-2.4,2.7-4.2,5.9-5.7,9.2c-2.6,5.8-4.2,11.9-5.5,18.2c-0.9,4.5-1.5,9-1.9,13.5
						c-0.4,4.4-0.6,8.8-0.9,13.2c-0.3,4.4,0.1,8.8,0.4,13.3c0.1,1.2,0.2,2.5,0.3,3.7c0.1,0.5,0.2,1,0.3,1.5c0.3,0.8,0,1.5-0.6,1.9
						C348.6,257,348.1,256.5,347.5,256.1z"/>
					<path d="M335.4,167.1c0.8,0.3,0.4,1.5-0.3,1.2c-0.4-0.1-0.8-0.3-1.3-0.4c-0.2-0.3-0.3-0.7-0.2-1.1c0-0.1,0-0.2,0.1-0.3
						C334.2,166.7,334.8,166.9,335.4,167.1z"/>
					<path d="M335,168.3c0.8,0.3,1.1-1,0.3-1.2c-0.6-0.2-1.2-0.4-1.8-0.6c0.3-0.7,1-1,2-0.9c1.6,0.2,3.2,0.6,4.8,1.1
						c6.7,2.3,13.5,4.5,20.2,6.8c3.1,1.1,6.1,2.6,9.2,3.9c1,0.4,1.9,1,2.8,1.6c2.2,1.3,4.1,3,5.5,5.1c5.2,7.6,8.8,15.8,10.1,25
						c0.6,4,0.8,8,0.9,12c0.2,5.1,0.3,10.3,0.4,13.1c0.1,8.9,0.2,15.5,0.3,22.1c0,0.2,0,0.5,0,0.7c-0.1,0.7-0.4,1.2-0.9,1.4
						c-0.1-0.9-0.5-1.8-1.5-2.3c-0.3-0.1-0.5-0.1-0.7,0c-0.1-7.3-0.1-14.6-0.2-21.9c-0.1-6.1-0.3-12.3-0.6-18.4
						c-0.3-5.7-1.2-11.3-3.2-16.6c-1.8-4.7-3.9-9.1-6.8-13.2c-1.3-1.9-3-3.4-4.9-4.6c-2-1.2-4.1-2.2-6.2-3.1
						c-0.4-0.2-0.8-0.3-1.2-0.5c-5.8-2.4-11.7-4.2-17.7-6.2c-2.2-0.7-4.4-1.4-6.6-2.1c-1.1-0.3-2.3-0.6-3.4-0.8
						c-0.2-0.1-0.5-0.1-0.7-0.1c-0.6-0.1-1-0.4-1.3-0.7C334.2,168,334.6,168.2,335,168.3z"/>
					<path class="st4" d="M329.9,164.9c1.1,0.7,2.4,1.2,3.7,1.6c0,0.1-0.1,0.2-0.1,0.3c-0.1,0.4,0,0.8,0.2,1.1
						c-1.1-0.4-2.3-0.8-3.4-1.3c-0.4-0.6-0.8-1.1-1.2-1.7C329.4,164.8,329.6,164.8,329.9,164.9z"/>
					<path d="M329.2,164.9c0.4,0.6,0.8,1.1,1.2,1.7c-0.4-0.2-0.8-0.4-1.2-0.6C328.8,165.7,328.9,165.2,329.2,164.9z"/>
					<path d="M323.2,94.6c0.5,0.5,0.5,1.2,0.2,1.7c-0.3,0.5-0.9,0.8-1.6,0.7c-0.3-0.1-0.7-0.2-0.9-0.4c-2.4-1.8-4.9-3.5-7.3-5.4
						c-1.6-1.3-2.9-3-4.1-4.7c-0.8-1.2-1.7-2.3-2.8-3.2c-0.6-0.5-0.7-1.1-0.5-1.7c0.2-0.6,0.8-0.9,1.5-0.9c0.6,0,1.1,0.3,1.5,0.8
						c0.9,1.1,1.8,2.1,2.6,3.2c1.7,2.5,3.7,4.7,6.2,6.4c1.5,1,2.9,2,4.4,3.1C322.6,94.1,322.9,94.3,323.2,94.6z"/>
					<path d="M320.7,79.6c0.3,0.9,0,1.7-0.8,2c-0.7,0.3-1.4,0-1.9-0.7c-0.8-1.1-1.5-2.3-2.3-3.4c-1.9-2.5-4.3-4.5-7.1-5.8
						c-3.1-1.4-6.2-2.9-9.6-3.6c-1-0.2-2-0.2-2.6-0.3c-2.9,0.2-5.4,0.4-7.8,1.1c-0.7,0.2-1.4,0.6-2.1,1c-0.3,0.1-0.5,0.3-0.8,0.4
						c-0.7,0.2-1.4-0.2-1.7-0.8c-0.3-0.6-0.2-1.4,0.5-1.8c0.7-0.5,1.5-0.9,2.3-1.2c2.3-0.9,4.8-1.1,7.2-1.5
						c3.5-0.5,6.8,0.1,10.1,1.4c2.2,0.9,4.4,1.8,6.6,2.8c4.2,2,7.2,5.3,9.6,9.2C320.4,78.8,320.6,79.2,320.7,79.6z"/>
					<path d="M319.4,63.3c0.4,0.7,0.6,1.4,0.6,2.3c0,0.4-0.3,0.6-0.6,0.6c-0.3,0-0.7-0.2-0.7-0.6c0-0.8-0.3-1.5-0.7-2.1
						c0.3-0.1,0.7-0.2,1-0.2C319.2,63.3,319.3,63.3,319.4,63.3z"/>
					<path d="M319.3,156.2c0.3,0.6,0.4,1.2-0.3,1.6c-0.3,0.2-0.6,0.1-0.7-0.1c0.4-0.2,0.7-0.4,1.1-0.5c0,0-0.1-0.2-0.1-0.4
						C319.3,156.5,319.3,156.3,319.3,156.2z"/>
					<path class="st6" d="M319.3,156.7c0,0.2,0.1,0.4,0.1,0.4c-0.4,0.2-0.8,0.4-1.1,0.5c-0.2-0.2-0.2-0.4-0.1-0.7c0,0,0-0.1,0.1-0.1
						c0,0,0,0,0,0c0,0,0-0.1,0.1-0.1c0,0,0,0,0,0c0-0.1,0.1-0.1,0.1-0.2c0.1-0.4,0.2-0.8,0.3-1.3c0.3,0.3,0.6,0.6,0.8,0.9
						c0,0,0,0,0,0C319.3,156.3,319.3,156.5,319.3,156.7z"/>
					<path class="st6" d="M318.1,63.5c-0.2-0.2-0.3-0.5-0.5-0.7c0.2,0,0.3-0.1,0.4-0.2c0.2-0.2,0.4-0.4,0.5-0.6
						c0.4,0.4,0.7,0.9,1,1.4c-0.1,0-0.2,0-0.3,0C318.8,63.3,318.4,63.4,318.1,63.5z"/>
					<path d="M319.5,66.2l0,0.2c-0.3,0-0.5,0.1-0.8,0.1c-0.9,0.2-1.6-0.2-1.8-1c-0.2-0.7,0.1-1.5,0.9-1.9c0.1,0,0.2-0.1,0.3-0.1
						c0.4,0.6,0.7,1.3,0.7,2.1C318.8,66,319.2,66.2,319.5,66.2z"/>
					<path d="M318.1,102.8l0.2,1.4c0,0.4,0,0.7,0,0.9c0,2.2,0,4.4,0,6.6c0,0.3-0.1,0.6-0.1,0.9c-0.2,0.7-0.8,1.1-1.5,1
						c-0.7,0-1.2-0.5-1.3-1.2c-0.1-0.4,0-0.8,0-1.2c0-2.1,0.1-4.1,0.1-6.2c0-1.3-0.4-2.6-1-3.7c-0.2-0.3-0.3-0.5-0.4-0.8
						c-0.2-0.7,0.1-1.4,0.8-1.7c0.6-0.3,1.3-0.2,1.8,0.4c0.2,0.3,0.4,0.6,0.6,1C317.4,101,317.8,101.9,318.1,102.8z"/>
					<path d="M318.2,156.8c0,0,0,0.1-0.1,0.1C318.1,156.9,318.1,156.9,318.2,156.8z"/>
					<path d="M317.1,62.3c-0.6-0.6,0.3-1.5,0.9-0.9c0.2,0.2,0.3,0.4,0.5,0.5c-0.1,0.2-0.3,0.5-0.5,0.6c-0.1,0.1-0.3,0.2-0.4,0.2
						C317.4,62.6,317.3,62.5,317.1,62.3z"/>
					<path d="M318.2,156.7c-0.1-0.1-0.2-0.3-0.3-0.4c-0.3-0.3-0.7-0.6-1-0.8c-0.7-0.5,0-1.5,0.6-1.1c0.3,0.2,0.7,0.5,1.1,0.9
						c-0.1,0.4-0.2,0.9-0.3,1.3C318.3,156.6,318.2,156.7,318.2,156.7z"/>
					<path d="M290.8,57.8c0.9,0.2,1.5,0.9,1.4,1.7c-0.1,0.8-0.8,1.3-1.5,1.3c-4.2-0.6-7.9,0.2-11.5,1.7c-2.6,1.1-5,2.6-6.8,4.9
						c-0.5,0.6-0.8,1.3-1,2.1c-0.1,0.4-0.4,0.9-0.7,1.2c-0.5,0.4-1.1,0.4-1.7,0.1c-0.6-0.3-0.9-0.9-0.7-1.6c0.3-1,0.6-2,1.2-2.8
						c0.8-1.4,2-2.5,3.3-3.5c3.5-2.7,7.4-4.2,11.7-4.9c1.9-0.3,3.9-0.5,5.8-0.2C290.6,57.8,290.7,57.8,290.8,57.8z"/>
					<path d="M274.4,158.6c0.6,0.5-0.3,1.4-0.9,0.9c-0.4-0.4-0.9-0.7-1.3-1.1c0.2-0.3,0.5-0.5,1.1-0.7
						C273.7,158,274.1,158.3,274.4,158.6z"/>
					<path class="st6" d="M271.1,155.6c0.7,0.7,1.5,1.4,2.3,2c-0.5,0.2-0.9,0.4-1.1,0.7c-0.5-0.5-1-0.9-1.5-1.4c0-0.3,0-0.5-0.1-0.8
						c-0.1-0.2-0.2-0.4-0.3-0.6C270.5,155.4,270.8,155.4,271.1,155.6z"/>
					<path d="M270.7,157c-0.2-0.2-0.4-0.3-0.5-0.5c-0.3-0.3-0.2-0.7,0.1-0.9c0.1,0.2,0.2,0.4,0.3,0.6
						C270.7,156.5,270.7,156.8,270.7,157z"/>
					<path d="M270.3,165.4c0.6,0.6-0.3,1.4-0.9,0.9c-0.5-0.5-1.1-0.9-1.6-1.3c0-0.4,0.2-0.7,0.4-1c0,0,0.1-0.1,0.1-0.1
						C269.1,164.3,269.7,164.8,270.3,165.4z"/>
					<path d="M324.4,67.7c-1.5-1-3.1-1.5-4.9-1.3l0-0.2c0.3,0,0.6-0.2,0.6-0.6c0-0.8-0.2-1.6-0.6-2.3c3,0,5.7,0.9,8,2.9
						c2.3,2,4,4.4,5.2,7.2c2.3,5.2,2.3,10.5,1,15.9c-0.7,2.9-1.5,5.8-2.3,8.6c-0.2,0.6-0.4,1.1-0.6,1.7c0,0,0,0.1,0.1,0.2
						c2.4,2.3,3.3,5.1,3.3,8.3c0.1,5.2-1.6,9.9-4.9,14c-1.3,1.6-3,2.8-5,3.5c-1.1,0.4-2.2,0.6-3.3,0.5c-0.3,0-0.5,0-0.9,0
						c-0.2,1.7-0.5,3.3-0.7,4.9c-0.1,0.4-0.1,0.8-0.2,1.1c-0.2,1-0.1,2.1-0.1,3.2c0,4.9-0.1,9.8-0.2,14.7c0,1.6-0.1,3.2-0.2,4.7
						c0,0.2,0,0.3,0,0.4c-0.4-0.4-0.8-0.7-1.1-0.9c-0.7-0.5-1.3,0.6-0.6,1.1c0.4,0.3,0.7,0.5,1,0.8c0.1,0.1,0.2,0.3,0.3,0.4
						c0,0,0,0.1-0.1,0.1c0,0,0,0,0,0c0,0,0,0.1-0.1,0.1c-0.4,0.6-1,0.9-1.7,0.7c-0.8-0.2-1.1-1-1-1.9c0.6-4.1,0.6-8.2,0.6-12.3
						c0,0,0-0.1-0.1-0.2c-0.2,0.2-0.4,0.4-0.6,0.5c-1.7,2-3.4,4-5.1,6c-2.2,2.5-4.7,4.8-7.3,6.9c-2.1,1.7-4.4,2.6-7.1,2.8
						c-3.8,0.2-7.5,0.6-11.3,0.9c-1.1,0.1-2.2,0.3-3.4,0.4c-1.9,0.1-3.8,0.2-5.9-0.2c0,0.4,0,0.8,0.1,1.1c0.3,1.7,0.5,3.4,0.8,5.1
						c0.1,0.5,0,1.1,0,1.7c0.1,0.1,0.3,0.3,0.5,0.4c2.2,1.6,4.4,3.1,6.5,4.7c0.4,0.3,0.7,0.3,1,0.1c1.2-0.5,2.4-0.9,3.6-1.4
						c9.8-4.4,19.5-9,29.1-14c0.4-0.2,0.9-0.4,1.3-0.7c0.2,0.2,0.5,0.3,0.7,0.1c0.7-0.4,0.7-1,0.3-1.6c0,0,0,0,0,0
						c0.2-1,1.2-1.5,2.2-1.1c0.4,0.2,0.7,0.5,1,0.9c0.9,1,1.7,2,2.5,3.1c1.4,1.9,2.8,3.9,4.2,5.9c-0.3,0.2-0.4,0.8,0,1.1
						c0.4,0.2,0.8,0.4,1.2,0.6c0.2,0.3,0.4,0.6,0.6,0.8c0.5,0.7,0.9,1.4,1.2,2.1c0.4,0.9,0.1,1.6-0.8,2.2c-0.3,0.2-0.6,0.4-0.7,0.7
						c-2.5,3.5-5.4,6.7-8.3,9.9c-4.4,4.9-8.6,9.9-12.9,14.8c-0.6,0.7-1.2,1.4-1.8,2.1c-0.5,0.6-1,1.1-1.6,1.6
						c-1.4,1.1-2.6,1.1-3.8-0.2c-1.4-1.6-2.7-3.3-4-5c-0.2-0.3-0.5-0.6-0.8-0.9c-0.3,0.2-0.6,0.4-0.8,0.6c-4,3.3-7.7,6.9-11.4,10.5
						c-1,1-2,1.9-3.1,2.9c-0.2,0.2-0.5,0.4-0.7,0.6c-1.2,0.8-2.3,0.7-3.3-0.3c-0.8-0.9-1.5-1.8-2.2-2.7c-2.6-3.4-4.6-7.1-6.6-10.9
						c-0.2-0.3-0.3-0.6-0.5-1c-0.3,0.3-0.6,0.5-0.8,0.7c-0.8,0.7-1.6,1.4-2.4,1.9c-1.9,1.3-3.5,0.7-4-1.5c-0.9-3.9-2.1-7.7-3.6-11.4
						c-0.4-1-0.8-2.1-1.2-3.2c-0.5-1.1-0.5-2.3-0.1-3.4c0.5-1.5,1.1-2.9,1.6-4.4c0.6-0.3,1.3-0.6,1.9-0.9c0.1-0.1,0.2-0.2,0.3-0.3
						l1.2,0.5c-0.3,0.7-0.6,1.4-0.9,2.1c-0.5,1.2-0.8,2.5-1.2,3.7c-0.2,0.6-0.2,1.1,0.1,1.7c0.7,1.7,1.3,3.5,1.9,5.2
						c0.9,2.7,1.8,5.4,2.6,8.1c0.1,0.2,0.1,0.4,0.3,0.8c0.7-0.4,1.2-0.9,1.7-1.3c2.8-2.5,5.5-5.1,8.3-7.6c1.6-1.5,3.2-3,4.9-4.4
						c0.2-0.2,0.5-0.4,0.7-0.6c0.8-0.6,1.7-0.5,2.2,0.1c0.5,0.6,0.4,1.5-0.3,2.2c-0.1,0.1-0.3,0.3-0.5,0.4c-3.2,2.9-6.4,5.8-9.6,8.7
						c-0.5,0.4-0.6,0.8-0.3,1.4c0.1,0.2,0.1,0.4,0.2,0.6c2.1,4.1,4.4,8.2,7.3,11.8c0.3,0.3,0.5,0.6,0.8,0.9c0.1,0.1,0.2,0.1,0.3,0.2
						c5.1-4.7,10.2-9.5,15.3-14.3c-0.3-0.4-0.6-0.8-1-1.2c-2-2.4-4-4.7-5.9-7.1c-0.8-0.9-1.5-1.9-2.3-2.8c-0.2-0.2-0.4-0.4-0.5-0.7
						c-0.4-0.7-0.3-1.6,0.3-2c0.6-0.5,1.4-0.4,2,0.3c0.1,0.1,0.2,0.3,0.3,0.4c2,2.6,4,5.2,6.1,7.8c3,3.7,6.1,7.3,9.2,10.9
						c0.1,0.2,0.3,0.3,0.6,0.6c0.5-0.5,0.9-1,1.3-1.5c2.9-3.4,5.9-6.8,8.8-10.2c1.9-2.1,3.7-4.2,5.6-6.3c3.1-3.3,6-6.8,8.7-10.7
						c-2.7-3.7-5-7.8-8.3-11.5c0.1,1.5-0.8,2-1.8,2.5c-3.2,1.6-6.3,3.1-9.5,4.6c-7.3,3.5-14.7,6.9-22,10.3c-0.9,0.4-1.9,0.8-2.9,1.2
						c-1,0.4-1.9,0.2-2.7-0.4c-2.6-1.9-5.2-3.8-7.8-5.8c-1.8-1.4-3.6-2.8-5.4-4.2c-0.2-0.1-0.3-0.3-0.4-0.4
						c-0.3-0.3-0.4-0.7-0.4-1.1c0.6,0.4,1.1,0.8,1.6,1.3c0.6,0.6,1.5-0.3,0.9-0.9c-0.6-0.6-1.3-1.1-2-1.5c0.5-0.4,1.3-0.4,1.9,0.1
						c0.7,0.6,1.4,1.1,2.1,1.7c0.2,0.1,0.3,0.2,0.6,0.5c-0.1-0.8-0.2-1.5-0.3-2.2c-0.2-1.4-0.4-2.8-0.6-4.2c-0.1-0.6,0-1,0.2-1.3
						c0.4,0.4,0.9,0.7,1.3,1.1c0.6,0.5,1.5-0.4,0.9-0.9c-0.4-0.3-0.8-0.6-1.1-1c0.1,0,0.2-0.1,0.4-0.1c0.8-0.2,1.5-0.2,2.2-0.1
						c1.8,0.4,3.6,0.3,5.4,0.1c3.9-0.3,7.8-0.6,11.7-1c1.4-0.1,2.7-0.3,4.1-0.4c1.1-0.1,2-0.6,2.9-1.2c2.9-2.1,5.6-4.4,7.9-7.2
						c1.7-1.9,3.3-3.9,5-5.9c1.3-1.5,2.1-3.1,2.4-5c0.6-3.5,1.1-6.9,1.6-10.4c0.1-0.7,0-1.4,0.1-2.1c0.1-1.2,0.8-1.8,2-1.6
						c3.5,0.7,6.3-0.5,8.3-3.4c2.4-3.3,3.7-6.9,3.7-11c0-1.4-0.2-2.7-0.7-3.9c-0.5-1.4-1.4-2.4-2.6-3.2c-1.3-0.8-2.7-0.9-4-0.1
						c-1.1,0.6-2.1,1.2-2.6,2.5c-0.4,1-1.4,1.2-2.3,0.8c-0.1-0.1-0.3-0.2-0.5-0.4l-0.2-1.4c2.3-3.7,5.3-5.8,9.9-4.7
						c0.1-0.3,0.3-0.6,0.4-0.9c1.1-3.5,2.1-7,2.7-10.5c0.9-4.7,0.2-9.2-2-13.5C328.1,70.9,326.5,69.1,324.4,67.7z"/>
					<path class="st6" d="M268.4,163.9c-0.1,0-0.1,0.1-0.1,0.1c-0.3,0.3-0.4,0.6-0.4,1c-0.8-0.5-1.7-0.9-2.6-1.2
						c0.2-0.5,0.2-1-0.1-1.3C266.3,162.7,267.4,163.2,268.4,163.9z"/>
					<path d="M264.1,163.4c-0.8-0.2-0.5-1.4,0.3-1.2c0.3,0.1,0.5,0.1,0.7,0.2c0.2,0.4,0.2,0.8,0.1,1.3
						C264.8,163.6,264.5,163.5,264.1,163.4z"/>
					<path class="st6" d="M260.1,70.3c0.2,1.6,0.4,3.2-0.1,4.8c-0.3-0.3-0.7-0.5-1.1-0.5c0,0,0,0,0,0c0.3-1.2,0.2-2.5,0-3.8
						c0.2,0,0.4,0,0.6-0.1C259.8,70.6,260,70.5,260.1,70.3z"/>
					<path d="M258.5,75.8c-0.4,0.7,0.7,1.3,1.1,0.6c0.2-0.4,0.4-0.9,0.5-1.4c0.3,0.3,0.5,0.8,0.4,1.4c-0.1,0.3-0.2,0.5-0.3,0.8
						c-1.1,3.3-2.4,6.5-3.2,9.9c-1.1,5.4-2,10.9-1.9,16.4c0.1,5.6,0,11.3,0.2,16.9c0.2,5,0.6,9.9,1.8,14.8c0.5,2.4,1.4,4.6,2.7,6.6
						c2.4,3.8,5.1,7.4,8,10.8c0.7,0.8,1.4,1.5,2,2.3c0.2,0.2,0.3,0.4,0.4,0.6c-0.3,0.2-0.4,0.6-0.1,0.9c0.2,0.2,0.3,0.3,0.5,0.5
						c0,0.4-0.3,0.8-0.7,1.1c-0.6,0.4-1.4,0.3-1.9-0.4c-3.9-4.6-7.7-9.3-10.9-14.4c-1.9-3.1-3-6.4-3.5-9.9c-0.4-3.1-0.8-6.1-1-9.2
						c-0.7-8-0.4-16-0.4-24.1c0-3.6,0.7-7,1.3-10.5c0.6-4,2-7.8,3.3-11.7c0.2-0.7,0.4-1.4,0.6-2.1c0.2-0.8,0.8-1.3,1.6-1.3
						C258.8,75,258.7,75.4,258.5,75.8z"/>
					<path d="M259,70.8c-0.1-0.4-0.1-0.9-0.2-1.3c-0.1-0.8,1.1-1.1,1.2-0.3c0.1,0.4,0.1,0.7,0.2,1.1c-0.2,0.2-0.4,0.3-0.6,0.4
						C259.4,70.8,259.2,70.8,259,70.8z"/>
					<path d="M259.4,171.3c-0.2,0.1-0.4,0.2-0.6,0.3c1-2.7,2.1-5.3,3.2-8c0.2-0.5,0.4-1,0.7-1.4c0.5-0.7,1.4-0.8,2-0.3
						c0.2,0.1,0.4,0.3,0.5,0.5c-0.2-0.1-0.5-0.1-0.7-0.2c-0.8-0.2-1.1,1-0.3,1.2c0.4,0.1,0.8,0.2,1.1,0.3c0,0,0,0.1,0,0.1
						c-1.2,2.9-2.4,5.8-3.6,8.8l-1.2-0.5C260.5,171.7,260,171,259.4,171.3z"/>
					<path d="M260,69.2c-0.1-0.8-1.3-0.5-1.2,0.3c0.1,0.4,0.1,0.9,0.2,1.3c-0.5,0-1-0.3-1.3-0.8c-0.9-1.5-1.3-3.1-1.2-4.5
						c0-2.5,0.6-4.5,1.8-6.4c1.7-2.7,4.1-4.7,7-6c2-0.9,4.1-1.5,6.3-1.8c0.8-0.1,1.6-0.1,2.5,0c1.1,0.1,2.1,0.5,2.6,1.6
						c0.4,0.7,0.9,0.8,1.5,0.6c1.9-0.4,3.8-0.8,5.7-1c4.6-0.6,9.2-0.8,13.9-0.5c3.6,0.3,7.2,0.7,10.7,1.5c4.3,0.9,7.4,3.3,9.8,6.8
						c0.2,0.2,0.3,0.5,0.4,0.7c0.1,0.4,0.1,0.7,0,1c-0.2-0.2-0.3-0.4-0.5-0.5c-0.6-0.6-1.5,0.3-0.9,0.9c0.2,0.2,0.3,0.3,0.5,0.5
						c-0.4,0.1-0.8,0.1-1.2-0.2c-0.2-0.1-0.3-0.3-0.5-0.4c-0.1-0.1-0.2-0.3-0.3-0.4c-2.3-3.4-5.5-5.2-9.5-5.9
						c-6.4-1.1-12.8-1.5-19.3-0.9c-2.8,0.2-5.5,0.9-8.3,1.4c-0.4,0.1-0.8,0.1-1.2,0.2c-1.3,0.1-2.3-0.4-2.9-1.6
						c-0.3-0.7-0.8-1-1.6-0.9c-4.8,0.5-9.2,2.1-12,6.4c-1.2,1.8-1.7,3.8-1.3,6c0.1,0.5,0.3,1,0.5,1.4c0.1,0.4,0.3,0.7,0.4,1
						c0.1,0.5,0,1-0.3,1.3C260.1,69.9,260,69.6,260,69.2z"/>
					<path d="M258.9,74.6c0.5,0,0.9,0.2,1.1,0.5c-0.1,0.5-0.3,0.9-0.5,1.4c-0.4,0.7-1.5,0.1-1.1-0.6C258.7,75.4,258.8,75,258.9,74.6
						C258.9,74.6,258.9,74.6,258.9,74.6z"/>
					<path d="M258.8,171.6c0.2-0.1,0.4-0.2,0.6-0.3c0.6-0.3,1.1,0.4,0.9,0.8c0,0.1-0.1,0.2-0.3,0.3c-0.6,0.3-1.3,0.6-1.9,0.9
						c0.1-0.3,0.2-0.6,0.3-0.8C258.6,172.1,258.7,171.9,258.8,171.6z"/>
					<path class="st4" d="M258.5,172.4c-0.1,0.3-0.2,0.6-0.3,0.8c-0.9,0.4-1.8,0.7-2.8,1.1c-0.2,0.1-0.3,0-0.4,0
						c0.2-0.4,0.2-0.8,0.1-1.2c0,0,0,0,0,0c1.3-0.4,2.5-0.9,3.7-1.5C258.7,171.9,258.6,172.1,258.5,172.4z"/>
					<path d="M255.1,173.1c0.1,0.4,0.1,0.8-0.1,1.2C254.6,174.1,254.5,173.3,255.1,173.1z"/>
					<path d="M214.5,254.1c0,0.4,0,0.8-0.1,1.2c-0.1,0.4-0.3,0.6-0.5,0.8c-0.1-0.2-0.1-0.4-0.1-0.7c0-0.8-1.3-0.8-1.3,0
						c0,0.3,0.1,0.7,0.2,1c-0.6-0.1-1-0.5-1.1-1.2c-0.1-0.3-0.1-0.7-0.1-1c0.3-6.6,0.5-13.2,0.9-19.8c0.4-5.9,1-11.7,1.5-17.5
						c0.6-7,2-13.8,4.5-20.3c0.5-1.4,1.1-2.9,1.8-4.3c1.9-4.1,4.7-7.5,8.7-9.9c2.9-1.8,6.1-3.1,9.3-4.3c3.6-1.3,7.2-2.6,10.7-3.9
						c1.3-0.5,2.6-1.1,3.8-1.7c0.1,0,0.2-0.1,0.3-0.1c0.8-0.3,1.6-0.1,2,0.6c0,0.1,0.1,0.2,0.1,0.2c-0.6,0.2-0.5,1-0.1,1.2
						c-0.1,0.2-0.3,0.4-0.5,0.6c-0.7,0.4-1.4,0.8-2.2,1.1c-3.1,1.2-6.2,2.4-9.3,3.5c-3.4,1.2-6.8,2.5-10,4.1
						c-0.7,0.3-1.2,0.8-1.9,1.2c0,0,0,0,0,0c-1.5,0.6-2.7,1.5-3.8,2.6c-2,2.1-3.7,4.4-4.9,7.2c-2.8,6.5-4.6,13.1-5.3,20.1
						c-0.8,7.3-1.5,14.5-2,21.8C214.8,242.4,214.7,248.3,214.5,254.1z"/>
					<path d="M231.1,184.8C231.1,184.8,231.1,184.8,231.1,184.8C231.1,184.8,231.1,184.8,231.1,184.8L231.1,184.8z"/>
					<path d="M229.5,254.6c0.2-0.8,1.4-0.5,1.2,0.3c-0.1,0.4-0.2,0.9-0.2,1.3c-0.4,0.2-0.8,0.2-1.3,0
						C229.3,255.8,229.4,255.2,229.5,254.6z"/>
					<path class="st4" d="M349.3,263.3c-4.6,0.6-9.1,0.7-13.7,1c-4.6,0.3-9.3,0.5-13.9,0.6c-16.1,0.2-32.1-0.8-48.2-1
						c-7.9-0.1-15.8,0-23.7-1c-6.5-0.9-13.4-3.7-19.9-2.2c-0.4,0.1-0.8-0.2-0.8-0.6c0-0.2,0-0.4,0-0.6c0.5-0.1,0.8-0.9,0.2-1.1
						c-0.1,0-0.1-0.1-0.2-0.1c0-0.7,0-1.3,0.1-2c0.4,0.2,0.9,0.2,1.3,0c-0.1,1-0.1,2-0.1,3c3.3-0.6,6.7-0.1,9.9,0.5
						c4,0.7,7.9,1.7,12,2.1c8,0.7,16.1,0.6,24.1,0.8c8.1,0.2,16.2,0.5,24.3,0.7c8,0.2,15.9,0.4,23.9,0.2c4-0.1,8-0.4,12-0.6
						c4-0.2,8-0.3,12-0.9c0-0.3,0-0.6,0-0.9h0c0,0.2,0.1,0.5,0.5,0.5c0.3,0,0.5,0.1,0.8,0.1c0,0.3,0,0.5,0,0.8
						C349.7,262.9,349.5,263.2,349.3,263.3z"/>
					<path class="st6" d="M229.3,258.4c0.6,0.3,0.3,1-0.2,1.1c0-0.4,0-0.8,0-1.2C229.2,258.3,229.2,258.4,229.3,258.4z"/>
					<path d="M228.3,255.1c0-0.3,0-0.5,0-0.8c0.1-13.8,0.1-27.5,0.3-41.3c0.1-5.3,0.7-10.7,1.1-16c0.3-3.5,0.8-7,0.7-10.5
						c0-0.7,0.2-1.3,0.7-1.7c1.6-0.5,2.4,0.1,2.3,1.8c-0.2,2.7-0.4,5.4-0.7,8.1c-0.7,7.1-1.4,14.3-1.4,21.5c0,12.3,0,24.6,0,36.8
						c0,0.7,0,1.5-0.1,2.2c-0.1,0.5-0.4,0.9-0.8,1.1c0.1-0.4,0.1-0.9,0.2-1.3c0.2-0.8-1-1.1-1.2-0.3c-0.1,0.6-0.2,1.1-0.3,1.7
						c0,0-0.1,0-0.1-0.1C228.6,256,228.4,255.6,228.3,255.1z"/>
					<path d="M213.8,255.6c0,0.2,0.1,0.5,0.1,0.7c-0.3,0.2-0.6,0.3-1,0.3c-0.1,0-0.2,0-0.2,0c-0.1-0.3-0.1-0.6-0.2-1
						C212.5,254.7,213.8,254.8,213.8,255.6z"/>
					<path class="st6" d="M214.4,258.5c4.7-1.1,10.1-2,14.7-0.2c0,0.4,0,0.8,0,1.2c-0.1,0-0.3,0-0.4,0c-4.6-2-10.3-0.6-14.9,0.4
						c-0.4,0.1-0.9-0.3-0.8-0.8c0.4-1,0-1.8-0.2-2.6c0.1,0,0.2,0,0.2,0c0.4,0,0.7-0.1,1-0.3c0.1,0.5,0.3,0.9,0.5,1.4
						C214.5,257.9,214.5,258.2,214.4,258.5z"/>
				</g>
				<path class="st7" d="M295.5,103.6c-2.9,0-5.7-0.8-8.3-2.1c-0.4-0.2-0.7-0.4-1.1-0.6c-1.9-1.1-2.3-3.8-1.6-5.4
					c0.1-0.3,0.3-0.6,0.4-0.9c0.9-1.7,1.9-2.1,3.7-1.5c2.4,0.9,4.8,1.5,7.3,1.9c1.1,0.2,2.1,0.5,3.2,0.8c0.6,0.2,1.2,0.5,1.7,0.8
					c1.4,0.9,1.8,2.5,1.1,4c-0.5,1.2-1.4,2-2.6,2.5C298.1,103.6,296.8,103.6,295.5,103.6z M299.4,100.1c-0.6-1.7-0.7-1.9-2.3-2.3
					c-0.5-0.1-1.1-0.3-1.6-0.4c-2.3-0.5-4.7-0.9-7-1.7c-0.4-0.1-0.8-0.2-1.1-0.3c-0.9,0.7-0.8,1.6-0.6,2.5c0.2,0.8,0.7,1.1,1.3,1.5
					c2.9,1.5,5.9,2.1,9.1,1.7C298.1,101,298.9,100.8,299.4,100.1z"/>
				<path class="st7" d="M271.8,96.2c0,1.4-0.5,2.5-1.2,3.5c-0.8,1.2-1.9,2.1-3.2,2.9c-2.1,1.3-4.5,2-6.9,2.6
					c-0.5,0.1-1.1,0.2-1.6,0.1c-1.2-0.1-2.2-0.7-2.7-1.9c-0.2-0.6-0.4-1.2-0.6-1.7c-0.5-1.6,0.5-3.3,1.8-3.8c3-1.1,5.6-2.9,8.4-4.2
					c0.8-0.4,1.7-0.7,2.5-0.8c1.9-0.3,3,0.6,3.5,2.6C271.8,95.7,271.8,96,271.8,96.2z M258.8,100.1c-0.2,0.9-0.5,1.6,0.4,2.3
					c0.5,0.4,1,0.5,1.5,0.3c2.3-0.5,4.4-1.4,6.3-2.8c0.8-0.6,1.5-1.2,1.9-2.1c0.2-0.6,0.3-1.2,0.4-1.8c0-0.5-0.4-0.9-0.9-0.8
					c-0.9,0.3-1.8,0.6-2.6,1C263.5,97.5,261.2,98.8,258.8,100.1z"/>
				<path class="st7" d="M280.5,140.5c0.6,0.1,1.7,0.3,2.7,0.5c2.4,0.6,4.7,1.6,6.7,3.1c0.5,0.4,1.1,0.9,1.5,1.4
					c0.5,0.6,0.4,1.5-0.1,2.1c-0.5,0.5-1.4,0.6-2.1,0.2c-0.2-0.1-0.3-0.2-0.5-0.4c-1.7-1.8-4-2.6-6.3-3.4c-3.2-1-5.9,0-8.3,2.1
					c-0.3,0.2-0.4,0.5-0.7,0.7c-0.5,0.4-1.2,0.4-1.7,0.1c-0.5-0.3-0.8-1-0.6-1.6c0.1-0.4,0.4-0.9,0.7-1.2
					C274.1,142.1,276.7,140.6,280.5,140.5z"/>
				<path class="st7" d="M289.9,129.9c0.3,0.1,0.5,0.1,0.7,0.3c0.3,0.2,0.6,0.5,0.9,0.8c3.1,3.3,5.8,6.9,7.9,11
					c0.3,0.7,0.6,1.4,0.9,2.1c0.2,0.6,0,1.2-0.5,1.4c-0.5,0.3-1.2,0.1-1.6-0.5c-0.2-0.3-0.3-0.6-0.5-0.9c-2-4.4-4.7-8.2-8-11.6
					c-0.3-0.3-0.6-0.6-0.8-0.9c-0.2-0.4-0.1-0.8,0.2-1.1C289.4,130.2,289.7,130.1,289.9,129.9z"/>
				<path class="st7" d="M264.7,145.3c0.1-0.4,0.1-1,0.3-1.6c0.8-3.3,1.7-6.5,3-9.6c0.2-0.6,0.5-1.1,0.9-1.6
					c0.4-0.4,1.1-0.5,1.5-0.1c0.4,0.3,0.6,0.9,0.3,1.5c-1.7,3.3-2.7,6.9-3.4,10.5c-0.1,0.5-0.2,0.9-0.3,1.4c-0.2,0.7-0.7,1.1-1.3,1
					C265,146.6,264.7,146.2,264.7,145.3z"/>
				<path class="st7" d="M277.5,131.5c-1.9-0.2-3.5-0.8-5-1.9c-0.2-0.1-0.3-0.3-0.4-0.4c-0.4-0.5-0.4-1.1-0.1-1.5
					c0.3-0.4,1-0.5,1.5-0.2c0.3,0.2,0.5,0.4,0.8,0.6c1.6,1,3.3,1.4,5.1,0.7c0.8-0.3,1.5-0.6,2.3-0.8c0.3-0.1,0.6-0.3,1-0.4
					c0.4-0.1,1,0.2,1.2,0.6c0.2,0.4,0.1,0.8-0.1,1.2c-0.1,0.2-0.3,0.3-0.4,0.4C281.4,130.8,279.5,131.3,277.5,131.5z"/>
				<path class="st7" d="M288.1,111.8c0-0.3,0-0.4,0-0.4c0-1.1,0.6-1.8,1.4-1.9c0.9-0.1,1.8,0.6,1.9,1.5c0.1,0.6,0.1,1.4-0.1,2
					c-0.2,0.7-0.9,1.2-1.5,1.2c-0.7-0.1-1.3-0.5-1.5-1.1C288.2,112.6,288.2,112.1,288.1,111.8z"/>
				<path class="st7" d="M265.6,112.8c0.1-0.5,0-0.8,0.2-1c0.2-0.4,0.5-0.8,0.9-1c0.6-0.3,1.2-0.2,1.7,0.2c0.7,0.6,0.9,1.8,0.5,2.8
					c-0.3,0.6-0.7,1-1.4,1c-0.5,0-1-0.1-1.2-0.5C265.9,113.7,265.7,113.1,265.6,112.8z"/>
				<g>
					<path class="st6" d="M282,196.6c0,0.6,0,1.2,0,1.7c-1.2-0.9-2.3-1.8-3.4-2.8c-0.1-0.2-0.2-0.4-0.4-0.6
						c-0.4-0.3-0.8-0.5-1.2-0.7c-1.9-1.1-3.8-2.1-5.7-3.3c-1-0.6-1.8-1.4-2.7-2.2c-0.8-0.7-1-1.6-0.9-2.6c0.1-1,0.3-1.9,0.8-2.7
						c0.5-0.9,1.3-1.4,2.3-1.5c0.7-0.1,1.5-0.1,2.3,0c2.6,0.3,5.2,0.6,7.7,1.2c2.6,0.5,5.3,0.7,7.7,1.9c0.9,0.5,1.9-0.5,1.6-1.4
						c-0.1-0.4-0.4-0.9-0.7-1.2c-0.7-0.4-1.5-0.8-2.3-0.9c-4.5-0.8-9-1.9-13.6-2.3c-2-0.2-3.8-0.2-5.6,0.6c-0.1,0-0.2-0.1-0.4-0.1
						c-0.3-1.5,0.2-3,0.9-4.3c0.5-1,1.4-1.7,2.5-1.9c0.7-0.1,1.5-0.2,2.2-0.2c1.2,0.1,2.3,0.2,3.5,0.5c4.8,1.1,9.7,1.9,14.4,3.4
						c0.3,0.1,0.8,0,1.2-0.2c0.8-0.4,0.8-1.5,0.1-2.1c-0.6-0.6-1.4-0.8-2.2-1c-4-0.9-8-1.8-12-2.7c-1.5-0.3-3.1-0.6-4.7-0.7
						c-1.3-0.1-2.7,0.1-4.2,0.2c0.1-1.5,0.7-2.8,1.2-4.1c0.8-1.8,2.3-2.5,4.1-2.5c1.1,0,2.3,0.2,3.5,0.4c4.4,1.1,8.9,2.3,13.3,3.5
						c0.3,0.1,0.7,0.2,1,0.2c0.6,0,1.1-0.6,1.1-1.2c0-0.6-0.3-1.1-0.8-1.3c-0.6-0.3-1.3-0.5-1.9-0.7c-2.2-0.6-4.4-1.2-6.6-1.7
						c-3-0.7-6-1.6-9-1.9c-0.2,0-0.4-0.1-0.7-0.3c0.2-0.5,0.5-1,0.7-1.5c1.1-2,2.7-2.8,5-2.5c0.3,0,0.5,0.1,0.8,0.1
						c5,0.6,9.7,2.2,14.4,4c1.5,0.5,2.5,1.5,3.2,3c1.8,3.7,3.7,7.4,5.5,11c0,0.1,0.1,0.2,0.1,0.3c0.2,0.6,0.4,1.1,0.5,1.7
						c-0.3,0-0.6,0.2-0.6,0.6c-0.1,0.5,0.3,0.8,0.7,0.8c0.2,0.2,0.3,0.7,0.3,0.9c0,0.2,0.1,0.4,0.3,0.5c0,0.1,0,0.1,0,0.1
						c0.1,0.6,0.2,1.2,0.4,1.8c1.7,5.3,2.8,10.7,4.1,16.1c1,4.1,1.9,8.3,2.9,12.4c0.2,0.8,0.4,1.6,0.8,2.3c0.2,0.4,0.6,0.7,1,0.7
						c0,0.1,0,0.1,0,0.2c0,0.1,0.1,0.1,0.1,0.2c-0.5,0-0.8,0.6-0.4,1.1c0.1,0.1,0.2,0.2,0.2,0.2c-1.8,0.7-3.5,1.6-5.3,2.4
						c-3.7,1.8-7.3,3.6-10.9,5.4c-0.1-0.1-0.2-0.2-0.3-0.3c0,0-0.1-0.1-0.2-0.2c-0.1-0.3-0.1-0.5-0.1-0.8c0.1-0.2,0.2-0.4,0.1-0.6
						c0-0.5-0.2-1-0.7-1.2c-0.4-0.2-0.8-0.2-1.2-0.3c-3.6-1.1-6.6-3-8.5-6.4c-0.9-1.7-1.6-3.5-1.9-5.4c-0.4-2.4-0.7-4.9-0.9-7.3
						c0.1-0.2,0.1-0.3,0-0.5c0-0.8-0.1-1.6,0-2.5c0-1.2,0.1-2.5,0-3.7c-0.1-1.8-0.9-3.3-2.6-4.1c-1.4-0.7-2.9-1.2-4.3-1.8
						c-0.3-0.1-0.7-0.2-1-0.2c-1-0.1-1.7,0.4-1.9,1.2c-0.1,0.9,0.4,1.5,1.4,1.7c0.1,0,0.1,0,0.2,0c1.5,0.1,2.9,0.9,4.2,1.5
						c0.8,0.4,1.2,1.1,1.2,2C282,195.1,282,195.9,282,196.6z"/>
					<path d="M278.7,195.6c0.1,0.4,0.1,0.8-0.1,1.1c-0.1,0.1-0.1,0.2-0.2,0.3c-0.4-0.3-0.7-0.6-1-1c-0.6-0.6,0.3-1.5,0.9-0.9
						C278.3,195.3,278.5,195.4,278.7,195.6z"/>
					<path d="M297.1,222.5c-0.2,0.1-0.3,0.1-0.5,0.1c0,0,0,0,0,0c0-0.1,0-0.2,0-0.3c0-0.2,0-0.5,0-0.7c0-0.8,1.3-0.8,1.3,0
						c0,0.1,0,0.2,0,0.3C297.7,222.2,297.5,222.4,297.1,222.5z"/>
					<path d="M304.3,175.7c0-0.1-0.1-0.3-0.1-0.4c-0.3-0.8,1-1.1,1.2-0.3c0.2,0.5,0.3,1,0.5,1.6c-0.4,0.1-0.9,0-1.3-0.4
						C304.5,175.9,304.4,175.8,304.3,175.7z"/>
					<path d="M296.3,222.6c-0.5,0-1-0.1-1.4-0.2c-4.8-1.7-8.6-4.5-10.6-9.4c-0.8-1.9-1.3-3.9-1.6-5.9c-0.3-2.4-0.6-4.8-0.7-7.1
						c0.6,0.4,1.2,0.8,1.8,1.2c0.4,0.2,0.8,0,0.9-0.4c0.1,2.4,0.5,4.9,0.9,7.3c0.3,1.9,1,3.7,1.9,5.4c1.9,3.4,4.9,5.2,8.5,6.4
						c0.4,0.1,0.8,0.2,1.2,0.3c0.5,0.2,0.7,0.6,0.7,1.2c0,0.2,0,0.4-0.1,0.6c0-0.1,0-0.2,0-0.3c0-0.8-1.3-0.8-1.3,0
						c0,0.2,0,0.5,0,0.7c0,0.1,0,0.2,0,0.3c0,0,0,0,0,0C296.5,222.6,296.4,222.6,296.3,222.6z"/>
					<path d="M315.5,214.9c0.3-0.1,0.6-0.2,0.8-0.3c0.1,0.3,0.2,0.6,0.1,0.8c-0.1,0.5-0.7,0.6-1.1,0.4c-0.3-0.1-0.5-0.4-0.7-0.6
						C314.9,215.1,315.2,215,315.5,214.9z"/>
					<path d="M292.6,256.6c0.2,0.1,0.4,0.2,0.6,0.3c-0.1,0.3-0.2,0.6-0.5,0.8c-0.1,0.1-0.2,0.1-0.3,0.2c-0.1-0.1-0.3-0.1-0.4-0.2
						C291.2,257.3,291.9,256.2,292.6,256.6z"/>
					<path d="M306.4,179.5c0,0.6-0.6,0.7-1,0.5c0-0.6,0.4-1.1,0.9-1.3C306.4,179,306.4,179.3,306.4,179.5z"/>
					<path d="M287.1,231.8c-0.1,0.2-0.2,0.5-0.2,0.8c0,0.8-1.3,0.8-1.3,0c0-0.4,0.1-0.8,0.3-1.2c0.1,0,0.3,0,0.4,0
						C286.6,231.4,286.9,231.6,287.1,231.8z"/>
					<path class="st6" d="M304.9,178.7c-0.4,0-0.8-0.3-0.7-0.8c0.1-0.4,0.3-0.5,0.6-0.6c-0.1-0.6-0.3-1.1-0.5-1.7
						c0.1,0.1,0.2,0.3,0.3,0.4c0.3,0.4,0.8,0.5,1.3,0.4c0.2,0.7,0.4,1.5,0.5,2.3c-0.5,0.2-0.9,0.7-0.9,1.3c-0.2-0.1-0.3-0.3-0.3-0.5
						C305.1,179.4,305,178.9,304.9,178.7z"/>
					<path class="st6" d="M297.1,222.5c0.3-0.1,0.6-0.4,0.7-0.7c0,0.3,0,0.5,0.1,0.8c0.1,0.1,0.1,0.1,0.2,0.2
						c0.1,0.1,0.2,0.2,0.3,0.3c-0.4,0.2-0.9,0.4-1.3,0.6c-0.1-0.2-0.2-0.4-0.2-0.6c-0.1-0.2-0.2-0.3-0.2-0.5
						C296.8,222.6,297,222.6,297.1,222.5z"/>
					<path d="M314.6,213.6c0-0.3,0.2-0.5,0.5-0.6c0.3-0.1,0.5,0,0.7,0.3c-0.1,0.1-0.2,0.2-0.4,0.3
						C315.2,213.6,314.9,213.6,314.6,213.6z"/>
					<path class="st6" d="M314.7,213.8c0-0.1,0-0.1,0-0.2c0.3,0,0.5,0,0.8-0.1c0.2-0.1,0.3-0.2,0.4-0.3c0,0.1,0.1,0.1,0.1,0.2
						c0.1,0.4,0.3,0.7,0.4,1.1c0,0,0,0,0,0.1c-0.2,0.1-0.5,0.2-0.8,0.3c-0.3,0.1-0.6,0.3-0.9,0.4c-0.1-0.1-0.2-0.2-0.2-0.2
						c-0.4-0.4,0-1,0.4-1.1C314.7,213.9,314.7,213.8,314.7,213.8z"/>
					<path d="M297.1,223.7c0.4-0.2,0.9-0.4,1.3-0.6c0,0,0,0.1,0.1,0.1c0.3,0.5-0.1,1-0.7,1C297.5,224.2,297.2,224,297.1,223.7z"/>
					<path class="st4" d="M288.8,229.7c0.4,0.6,1,0.8,1.6,0.7c0.2-0.1,0.3-0.1,0.5-0.2c-0.1,0.3-0.3,0.6-0.8,0.5
						c-1.2-0.3-2.5,0-3,1.1c-0.2-0.2-0.5-0.3-0.8-0.4c-0.1,0-0.3,0-0.4,0c0.5-1.1,1.5-1.8,2.7-2
						C288.6,229.5,288.7,229.6,288.8,229.7z"/>
					<path d="M315.1,213c-0.3,0.1-0.5,0.3-0.5,0.6c-0.4-0.1-0.8-0.3-1-0.7c-0.3-0.7-0.6-1.5-0.8-2.3c-1-4.1-2-8.3-2.9-12.4
						c-1.3-5.4-2.5-10.8-4.1-16.1c-0.2-0.6-0.3-1.2-0.4-1.8c0,0,0-0.1,0-0.1c0.4,0.2,1,0.1,1-0.5c0-0.3,0-0.6-0.1-0.8
						c0.1,0,0.3-0.1,0.4-0.1c0.7,0,1.2,0.4,1.4,1.2c0.5,1.7,0.9,3.4,1.3,5.2c2,8.3,4.1,16.6,6.1,25c0.2,0.7,0.4,1.3,0.5,2
						c0.1,0.5,0,1-0.3,1.3C315.6,213,315.4,212.9,315.1,213z"/>
					<path d="M284.6,233.6c0-0.4,0-0.8,0.1-1.2c0.2-0.5,0.6-0.9,1.2-1c-0.2,0.4-0.2,0.8-0.3,1.2c0,0.8,1.2,0.8,1.3,0
						c0-0.3,0.1-0.6,0.2-0.8c0.3,0.3,0.4,0.6,0.4,1.1c0,0.1,0,0.3-0.1,0.7c0,0.3,0.1,0.8,0.2,1.3c1.3,5.6,2.6,11.2,3.9,16.8
						c0.4,1.5,1,2.8,1.4,4.3c0,0.1,0.1,0.3,0.1,0.4c0.1,0.2,0.1,0.4,0,0.6c-0.2-0.1-0.4-0.2-0.6-0.3c-0.7-0.4-1.3,0.7-0.6,1.1
						c0.1,0.1,0.3,0.1,0.4,0.2c-0.5,0.2-1,0.1-1.4-0.2c-0.5-0.4-0.8-1-0.9-1.6c-0.6-2.3-1.3-4.6-1.9-6.9c-1.1-4.6-2.2-9.2-3.2-13.8
						C284.8,234.8,284.6,234.2,284.6,233.6z"/>
					<path class="st6" d="M278.7,195.6c1.1,1,2.2,1.9,3.4,2.8c0,0.5,0,1,0.1,1.6c-1.3-0.9-2.6-1.9-3.8-3c0.1-0.1,0.2-0.2,0.2-0.3
						C278.7,196.3,278.8,195.9,278.7,195.6z"/>
					<path class="st6" d="M284.8,200.3c0.1,0.1,0.1,0.3,0,0.5C284.8,200.6,284.8,200.4,284.8,200.3z"/>
					<path d="M284.8,197.8c0,0.8,0,1.6,0,2.5c0-0.1-0.1-0.2-0.2-0.3c-0.9-0.5-1.7-1.1-2.5-1.7c0-0.6,0-1.2,0-1.7
						c0-0.8,0-1.5-0.1-2.3c0-0.9-0.4-1.6-1.2-2c-1.3-0.7-2.7-1.4-4.2-1.5c-0.1,0-0.1,0-0.2,0c-1-0.2-1.5-0.8-1.4-1.7
						c0.1-0.8,0.9-1.3,1.9-1.2c0.3,0,0.7,0.1,1,0.2c1.5,0.6,2.9,1.2,4.3,1.8c1.7,0.8,2.5,2.3,2.6,4.1
						C284.8,195.3,284.8,196.6,284.8,197.8z"/>
					<path d="M288.9,228.2c0.3-0.3,0.7-0.7,1.1-0.9c0.8-0.5,1.6-0.9,2.4-1.3c1.6-0.8,3.1-1.6,4.7-2.3c0.2,0.3,0.4,0.5,0.7,0.5
						c0.5,0,0.9-0.5,0.7-1c0,0,0-0.1-0.1-0.1c3.6-1.8,7.3-3.6,10.9-5.4c1.7-0.8,3.5-1.7,5.3-2.4c0.2,0.2,0.4,0.4,0.7,0.6
						c0.4,0.2,1,0.1,1.1-0.4c0.1-0.3,0-0.6-0.1-0.8c1.5-0.5,2,0,2.8,1.9c3.7,9.2,7.3,18.5,11,27.7c0.8,2.1,1.7,4.2,2.5,6.3
						c0.2,0.5,0.4,1,0.5,1.6c0.1,0.6-0.3,1.1-0.7,1.3c-0.5,0.2-1.1,0.2-1.4-0.2c0,0,0,0,0,0c0-0.3-0.2-0.5-0.4-0.6h0
						c-0.3-0.5-0.5-1.1-0.7-1.6c-4.2-10.4-8.3-20.7-12.5-31.1c-0.3-0.7-0.6-1.4-0.9-2.2c-1.5,0.4-2.7,1-3.9,1.5
						c-3,1.4-5.9,2.9-8.9,4.4c-2.9,1.5-5.9,2.9-8.8,4.4c-1.3,0.7-2.5,1.4-3.7,2.1c-0.1,0-0.1,0.1-0.2,0.1c0.1-0.3-0.1-0.6-0.4-0.7
						c-0.6-0.1-1.2-0.2-1.8-0.1C288.5,229,288.5,228.6,288.9,228.2z"/>
					<path d="M330.5,252.6c0.3,0.1,0.5,0.3,0.4,0.6c-0.1-0.1-0.1-0.1-0.2-0.2C330.7,252.8,330.6,252.7,330.5,252.6z"/>
					<path d="M278.2,195.1c-0.6-0.6-1.5,0.3-0.9,0.9c0.3,0.3,0.7,0.7,1,1c-0.3,0.3-0.8,0.4-1.2,0.3c-0.4-0.1-0.8-0.3-1.1-0.5
						c-2.4-1.4-4.8-2.7-7.1-4.2c-0.7-0.4-1.3-1-1.9-1.6c-2.1-1.9-2.5-4.3-1.8-7c0.2-0.8,0.6-1.6,1-2.6c-1.7-0.7-1.8-2.1-1.4-3.6
						c0.3-1.1,0.6-2.2,1-3.3c0.2-0.6,0.4-1.3,0.4-2c0-2.7,0.9-5.1,2-7.5c0.5-1.1,1.2-2,2.2-2.7c0.6-0.4,0.9-1,1.2-1.6
						c0.6-1.2,1.2-2.5,2-3.6c1.4-2.1,3.4-3,5.8-2.7c1.7,0.2,3.4,0.4,5.1,0.7c4.1,0.8,8.1,2.2,12,3.6c0.6,0.2,1.2,0.6,1.8,0.9
						c1.1,0.6,1.9,1.4,2.3,2.5c0.2,0.5,0.5,1,0.7,1.5c1.5,3,3,6,4.6,9c0.3,0.6,0.6,1.2,0.9,1.9c0.2,0.5,0.1,0.9-0.2,1.4
						c-0.2,0.3-0.4,0.4-0.7,0.5c-0.2-0.5-0.3-1-0.5-1.6c-0.3-0.8-1.5-0.4-1.2,0.3c0.1,0.1,0.1,0.3,0.1,0.4c-0.1-0.1-0.1-0.2-0.1-0.3
						c-1.8-3.7-3.7-7.3-5.5-11c-0.7-1.5-1.8-2.4-3.2-3c-4.7-1.8-9.4-3.4-14.4-4c-0.3,0-0.5-0.1-0.8-0.1c-2.2-0.3-3.9,0.5-5,2.5
						c-0.3,0.5-0.5,0.9-0.7,1.5c0.3,0.1,0.5,0.3,0.7,0.3c3.1,0.3,6,1.2,9,1.9c2.2,0.5,4.4,1.1,6.6,1.7c0.7,0.2,1.3,0.4,1.9,0.7
						c0.5,0.3,0.8,0.7,0.8,1.3c0,0.7-0.5,1.2-1.1,1.2c-0.3,0-0.7-0.1-1-0.2c-4.4-1.2-8.9-2.4-13.3-3.5c-1.1-0.3-2.3-0.5-3.5-0.4
						c-1.8,0.1-3.3,0.7-4.1,2.5c-0.5,1.3-1.1,2.6-1.2,4.1c1.5-0.1,2.9-0.3,4.2-0.2c1.6,0.1,3.1,0.4,4.7,0.7c4,0.9,8,1.8,12,2.7
						c0.8,0.2,1.6,0.4,2.2,1c0.7,0.6,0.6,1.7-0.1,2.1c-0.3,0.2-0.8,0.3-1.2,0.2c-4.7-1.5-9.6-2.2-14.4-3.4c-1.1-0.3-2.3-0.4-3.5-0.5
						c-0.7-0.1-1.5,0.1-2.2,0.2c-1.2,0.2-2,0.9-2.5,1.9c-0.7,1.4-1.2,2.8-0.9,4.3c0.2,0.1,0.3,0.1,0.4,0.1c1.8-0.8,3.7-0.8,5.6-0.6
						c4.6,0.4,9.1,1.5,13.6,2.3c0.8,0.1,1.6,0.5,2.3,0.9c0.4,0.2,0.6,0.7,0.7,1.2c0.2,1-0.8,1.9-1.6,1.4c-2.4-1.3-5.1-1.4-7.7-1.9
						c-2.5-0.5-5.1-0.8-7.7-1.2c-0.7-0.1-1.5-0.1-2.3,0c-1,0.1-1.8,0.6-2.3,1.5c-0.5,0.8-0.8,1.8-0.8,2.7c-0.1,1,0.2,1.9,0.9,2.6
						c0.9,0.8,1.7,1.6,2.7,2.2c1.9,1.2,3.8,2.2,5.7,3.3c0.4,0.2,0.9,0.4,1.2,0.7c0.2,0.2,0.3,0.4,0.4,0.6
						C278.5,195.4,278.3,195.3,278.2,195.1z"/>
					<path d="M282,198.4c0.8,0.6,1.7,1.1,2.5,1.7c0.1,0.1,0.2,0.2,0.2,0.3c0,0.2,0,0.3,0,0.5c-0.1,0.3-0.5,0.6-0.9,0.4
						c-0.6-0.4-1.2-0.8-1.8-1.2C282.1,199.4,282.1,198.9,282,198.4z"/>
					<path class="st6" d="M330.7,253c-0.1-0.1-0.2-0.3-0.2-0.4c-0.3-0.5-0.5-1.1-0.7-1.6c-4.2-10.4-8.3-20.7-12.5-31.1
						c-0.3-0.7-0.6-1.4-0.9-2.2c-1.5,0.4-2.7,1-3.9,1.5c-3,1.4-5.9,2.9-8.9,4.4c-2.9,1.5-5.9,2.9-8.8,4.4c-1.3,0.7-2.5,1.4-3.7,2.1
						c-0.1,0-0.1,0.1-0.2,0.1c-0.1,0.3-0.3,0.6-0.8,0.5c-1.2-0.3-2.5,0-3,1.1c0.3,0.3,0.4,0.6,0.4,1.1c0,0.1,0,0.3-0.1,0.7
						c0,0.3,0.1,0.8,0.2,1.3c1.3,5.6,2.6,11.2,3.9,16.8c0.4,1.5,1,2.8,1.4,4.3c0,0.1,0.1,0.3,0.1,0.4c0.1,0.2,0.2,1.5,0.3,1.7
						c0.8,3.2,1.2,5.3,1.5,7c1.8,0.3,10.9,1,17.1,0.8c5.4-0.2,15.3,0,23-1.1c0,0-4.1-11.4-4.1-11.4
						C330.8,253.1,330.8,253.1,330.7,253z"/>
					<path d="M290.3,230.4c-0.6,0.2-1.2-0.1-1.6-0.7c-0.1-0.1-0.1-0.2-0.2-0.3c0.6-0.1,1.2-0.1,1.8,0.1c0.4,0.1,0.5,0.4,0.4,0.7
						C290.7,230.3,290.5,230.4,290.3,230.4z"/>
				</g>
			</g>
			<path d="M237.6,82.7c0.7,0.2,1.2,0.8,1.1,1.4c0,0.7-0.7,1.3-1.5,1.4c-0.3,0-0.7,0-1-0.1c-1.4-0.3-2.7-0.6-4.1-0.9
				c-1.4-0.4-2.5-1.2-3.4-2.3c-2.8,1.1-5.6,1.4-8.5,0.9c-0.9-0.2-1.8-0.4-2.6-0.7c-2.2-0.9-3.6-2.6-3.9-4.9
				c-0.2-1.7-0.3-3.4-0.4-5.1c-0.4-0.4-0.9,0-1.3,0.2c-3.1,1.3-6.3,1.7-9.6,1.3c-1.5-0.2-2.9-0.6-4.2-1.3c-2.3-1.2-3.5-3.1-3.6-5.7
				c-0.1-1.6,0.1-3.3,0.2-5.1c-0.3-0.2-0.8-0.5-1.2-0.9c-1-0.8-2.1-1.6-3-2.5c-1.7-1.8-2.1-4.1-1.3-6.4c0.3-0.9,0.8-1.8,1.3-2.6
				c1.4-1.9,3-3.7,4.8-5.2c3-2.5,6.2-3.1,9.9-1.4c0.7-0.5,1.4-1,2.2-1.5c3-2,6.1-3.7,9.8-4.4c1.6-0.3,3.1-0.1,4.6,0.4
				c2.1,0.7,3.4,2.2,3.6,4.5c0.1,1.1,0,2.1,0,3.2c0,0.8-0.1,1.6-0.1,2.4c0.3,0.2,0.6,0.4,0.8,0.6c1.5,1.2,2.1,2.7,1.9,4.5
				c-0.2,1.8-0.6,3.5-0.9,5.5c0.2,0.2,0.6,0.4,0.9,0.6c2.2,1,3.1,3,2.9,5.2c-0.1,2.3-0.8,4.4-2,6.1c-1,1.5-2.5,2.8-4.3,3.8
				c-2.1,1.1-4.3,0.9-6.4,0c-0.6-0.3-1.3-0.6-2.1-1c-0.2,1.7-0.3,3.3,0.1,4.8c0.3,1.4,1.2,2.3,2.5,2.8c3,1,5.9,0.9,8.9-0.6
				c0-0.8,0-1.5,0-2.2c0-2,0.4-3.9,1.2-5.7c0.3-0.6,0.6-1.2,1-1.7c0.6-0.9,1.4-1.6,2.3-2.2c0.7-0.4,1.5-0.8,2.2-0.9
				c1.8-0.2,3.2,1.1,3,3c0,0.5-0.2,1-0.3,1.4c-0.9,3.1-2.4,5.9-4.7,8.2c-0.4,0.4-1.1,0.7-1.1,1.5c0.6,0.8,1.5,0.9,2.4,1.1
				c0.9,0.2,1.8,0.4,2.6,0.5C237,82.6,237.3,82.6,237.6,82.7z M231.1,76.9c2.1-1.8,3.2-4,3.6-6.9c-0.8-0.2-1.1,0.4-1.6,0.8
				c-1,0.9-1.5,2.1-1.9,3.4C230.8,75.3,230.8,75.9,231.1,76.9z M223.9,71.1c2.5-1.1,4.8-4.8,4.7-7.5c0-1.5-0.6-2.5-2.3-2.8
				c-1.4,1.7-2.6,3.3-4,4.8c-1.4,1.5-3,2.7-4.6,4.1c0.7,0.9,1.6,1.3,2.5,1.6C221.5,71.6,222.7,71.6,223.9,71.1z M224.4,57.9
				c0.9-2,1.4-4.2,1.2-6.4c0-0.4-0.1-0.8-0.8-0.8c-1.2,3.2-3.6,5.5-6.2,7.6c-1.7,1.3-3.5,2.4-5.5,3.2c-0.6,0.3-1.1,0.6-1.6,0.9
				c0.6,2.3,1.1,3.1,3.4,5.1c1.4-2.6,3.5-4.3,5.5-6c0.9-0.8,1.9-1.5,2.8-2.3C223.7,58.8,224.2,58.4,224.4,57.9z M222.7,46.6
				c0.5-1.3,0.5-2.7,0.4-4.1c-0.1-1.9-1-2.8-2.9-3.1c-1.3-0.2-2.6-0.2-3.9,0.3c-1.4,0.5-2.8,1-4.1,1.6c-3.4,1.7-6.5,3.9-8.8,6.9
				c-2.5,3.2-4.2,6.8-5.2,10.7c-0.1,0.3,0,0.6,0,0.9c3,1.4,7.2,1.6,10,0.5C209.6,52,215.1,47.1,222.7,46.6z M219.4,54.2
				c1.2-1.2,2.2-2.6,2.7-4.4c-1.5-0.5-2.7,0-3.8,0.5c-2.3,1-4.2,2.6-5.5,4.7c-0.8,1.3-1.6,2.6-1.4,4.4
				C214.8,58.5,217.1,56.4,219.4,54.2z M212.6,69.4c-0.9-1.1-1.6-2-2.2-2.9c-0.7-1-1.2-2.1-1.7-3.1c-1.9,0.1-3.7,0.3-5.4,0.2
				c-1.8-0.1-3.6-0.4-5.7-0.7c-0.1,0.9-0.2,1.7-0.2,2.5c0,3,1.1,4.6,4,5.4C205.1,71.9,208.8,71.4,212.6,69.4z M202.8,44.6
				c-2.2-0.3-2.9-0.1-4.4,0.8c-2,1.3-3.6,3-5.1,4.9c-2.3,3-1.9,5.5,1.1,7.7c0.3,0.2,0.7,0.4,1.1,0.6c1-2.5,1.9-5,3.1-7.3
				C199.7,49.1,201.3,47,202.8,44.6z"/>
		</g>
	</g>
	<rect class="st8" width="400" height="270"/>
</g>
</svg>
